<?xml version="1.0" encoding="utf-8"?>
<!-- Generator: Adobe Illustrator 16.0.3, SVG Export Plug-In . SVG Version: 6.00 Build 0)  -->
<!DOCTYPE svg PUBLIC "-//W3C//DTD SVG 1.1//EN" "http://www.w3.org/Graphics/SVG/1.1/DTD/svg11.dtd">
<svg version="1.1" id="Capa_1" xmlns="http://www.w3.org/2000/svg" xmlns:xlink="http://www.w3.org/1999/xlink" x="0px" y="0px"
	 width="595.276px" height="215.5px" viewBox="0 0 595.276 215.5" enable-background="new 0 0 595.276 215.5" xml:space="preserve">
<g>
	<defs>
		<rect id="SVGID_1_" width="595.276" height="215.5"/>
	</defs>
	<clipPath id="SVGID_2_">
		<use xlink:href="#SVGID_1_"  overflow="visible"/>
	</clipPath>
	<g clip-path="url(#SVGID_2_)">
		<defs>
			<polygon id="SVGID_3_" points="187.668,51.271 187.668,117.376 241.31,117.376 241.31,101.793 205.798,101.793 205.798,91.31 
				237.535,91.31 237.535,76.86 205.798,76.86 205.798,66.852 240.841,66.852 240.841,51.271 			"/>
		</defs>
		<clipPath id="SVGID_4_">
			<use xlink:href="#SVGID_3_"  overflow="visible"/>
		</clipPath>
		
			<linearGradient id="SVGID_5_" gradientUnits="userSpaceOnUse" x1="0" y1="215.5" x2="1" y2="215.5" gradientTransform="matrix(5.9653 -100.217 100.217 5.9653 -21388.623 -1094.4332)">
			<stop  offset="0" style="stop-color:#60DAF3"/>
			<stop  offset="0.0044" style="stop-color:#5FDAF3"/>
			<stop  offset="0.1944" style="stop-color:#3DC6E1"/>
			<stop  offset="0.3881" style="stop-color:#22B7D3"/>
			<stop  offset="0.5849" style="stop-color:#0FADC9"/>
			<stop  offset="0.7864" style="stop-color:#04A6C3"/>
			<stop  offset="1" style="stop-color:#00A4C1"/>
		</linearGradient>
		<polygon clip-path="url(#SVGID_4_)" fill="url(#SVGID_5_)" points="241.121,120.558 245.231,51.504 187.857,48.089 
			183.747,117.143 		"/>
	</g>
	<g clip-path="url(#SVGID_2_)">
		<defs>
			<polygon id="SVGID_6_" points="294.983,51.271 294.983,86.212 267.785,51.271 250.263,51.271 250.263,51.278 250.263,117.376 
				268.823,117.376 268.823,81.112 297.068,117.376 313.116,117.376 313.116,51.271 313.106,51.271 			"/>
		</defs>
		<clipPath id="SVGID_7_">
			<use xlink:href="#SVGID_6_"  overflow="visible"/>
		</clipPath>
		
			<linearGradient id="SVGID_8_" gradientUnits="userSpaceOnUse" x1="0" y1="215.501" x2="1" y2="215.501" gradientTransform="matrix(5.9653 -100.217 100.217 5.9653 -21321.6855 -1090.4332)">
			<stop  offset="0" style="stop-color:#60DAF3"/>
			<stop  offset="0.0044" style="stop-color:#5FDAF3"/>
			<stop  offset="0.1944" style="stop-color:#3DC6E1"/>
			<stop  offset="0.3881" style="stop-color:#22B7D3"/>
			<stop  offset="0.5849" style="stop-color:#0FADC9"/>
			<stop  offset="0.7864" style="stop-color:#04A6C3"/>
			<stop  offset="1" style="stop-color:#00A4C1"/>
		</linearGradient>
		<polygon clip-path="url(#SVGID_7_)" fill="url(#SVGID_8_)" points="312.895,121.104 317.037,51.504 250.485,47.543 
			246.342,117.143 		"/>
	</g>
	<g clip-path="url(#SVGID_2_)">
		<defs>
			<polygon id="SVGID_9_" points="324.865,51.271 324.865,51.28 324.865,117.376 378.508,117.376 378.508,101.793 342.997,101.793 
				342.997,91.31 374.732,91.31 374.732,76.86 342.997,76.86 342.997,66.852 378.039,66.852 378.039,51.271 			"/>
		</defs>
		<clipPath id="SVGID_10_">
			<use xlink:href="#SVGID_9_"  overflow="visible"/>
		</clipPath>
		
			<linearGradient id="SVGID_11_" gradientUnits="userSpaceOnUse" x1="0" y1="215.5" x2="1" y2="215.5" gradientTransform="matrix(5.9653 -100.217 100.217 5.9653 -21251.9355 -1086.3082)">
			<stop  offset="0" style="stop-color:#60DAF3"/>
			<stop  offset="0.0044" style="stop-color:#5FDAF3"/>
			<stop  offset="0.1944" style="stop-color:#3DC6E1"/>
			<stop  offset="0.3881" style="stop-color:#22B7D3"/>
			<stop  offset="0.5849" style="stop-color:#0FADC9"/>
			<stop  offset="0.7864" style="stop-color:#04A6C3"/>
			<stop  offset="1" style="stop-color:#00A4C1"/>
		</linearGradient>
		<polygon clip-path="url(#SVGID_10_)" fill="url(#SVGID_11_)" points="378.318,120.558 382.429,51.504 325.055,48.089 
			320.944,117.143 		"/>
	</g>
	<g clip-path="url(#SVGID_2_)">
		<defs>
			<path id="SVGID_12_" d="M406.214,67.134h11.995c6.136,0,9.912,2.646,9.912,7.84v0.189c0,4.816-3.583,7.838-9.819,7.838h-12.088
				V67.134z M387.888,51.27l-0.001,0.006v66.1h18.327V97.354h7.835h0.192l13.317,20.022h21.155v-0.001l-15.771-23.042
				c8.215-3.494,13.596-10.199,13.596-20.303v-0.19c0-6.516-1.984-11.616-5.853-15.394c-4.444-4.532-11.427-7.176-21.53-7.176
				H387.888z"/>
		</defs>
		<clipPath id="SVGID_13_">
			<use xlink:href="#SVGID_12_"  overflow="visible"/>
		</clipPath>
		
			<linearGradient id="SVGID_14_" gradientUnits="userSpaceOnUse" x1="0" y1="215.5" x2="1" y2="215.5" gradientTransform="matrix(5.9653 -100.217 100.217 5.9653 -21185.5 -1082.3143)">
			<stop  offset="0" style="stop-color:#60DAF3"/>
			<stop  offset="0.0044" style="stop-color:#5FDAF3"/>
			<stop  offset="0.1944" style="stop-color:#3DC6E1"/>
			<stop  offset="0.3881" style="stop-color:#22B7D3"/>
			<stop  offset="0.5849" style="stop-color:#0FADC9"/>
			<stop  offset="0.7864" style="stop-color:#04A6C3"/>
			<stop  offset="1" style="stop-color:#00A4C1"/>
		</linearGradient>
		<polygon clip-path="url(#SVGID_13_)" fill="url(#SVGID_14_)" points="448.499,120.984 452.635,51.503 388.102,47.662 
			383.966,117.143 		"/>
	</g>
	<g clip-path="url(#SVGID_2_)">
		<defs>
			<path id="SVGID_15_" d="M452.461,84.323v0.19c0,20.019,15.395,34.185,35.982,34.185c11.994,0,21.721-4.439,28.703-10.199V78.751
				h-30.404v13.411h13.033v8.026c-2.745,1.795-6.144,2.74-10.581,2.74c-10.48,0-17.939-7.651-17.939-18.322v-0.19
				c0-10.104,7.366-18.131,16.901-18.131c6.514,0,11.232,2.266,15.964,6.233l10.765-12.939c-6.991-6.044-15.209-9.63-26.819-9.63
				C467.573,49.949,452.461,65.057,452.461,84.323"/>
		</defs>
		<clipPath id="SVGID_16_">
			<use xlink:href="#SVGID_15_"  overflow="visible"/>
		</clipPath>
		
			<linearGradient id="SVGID_17_" gradientUnits="userSpaceOnUse" x1="0" y1="215.5" x2="1" y2="215.5" gradientTransform="matrix(5.9653 -100.217 100.217 5.9653 -21119.248 -1078.4332)">
			<stop  offset="0" style="stop-color:#60DAF3"/>
			<stop  offset="0.0044" style="stop-color:#5FDAF3"/>
			<stop  offset="0.1944" style="stop-color:#3DC6E1"/>
			<stop  offset="0.3881" style="stop-color:#22B7D3"/>
			<stop  offset="0.5849" style="stop-color:#0FADC9"/>
			<stop  offset="0.7864" style="stop-color:#04A6C3"/>
			<stop  offset="1" style="stop-color:#00A4C1"/>
		</linearGradient>
		<polygon clip-path="url(#SVGID_16_)" fill="url(#SVGID_17_)" points="516.918,122.535 521.224,50.192 452.689,46.112 
			448.383,118.455 		"/>
	</g>
	<g clip-path="url(#SVGID_2_)">
		<defs>
			<polygon id="SVGID_18_" points="566.667,51.27 552.972,75.351 539.377,51.27 518.5,51.27 543.621,92.633 543.621,117.376 
				562.038,117.376 562.038,92.35 587.16,51.27 587.15,51.27 			"/>
		</defs>
		<clipPath id="SVGID_19_">
			<use xlink:href="#SVGID_18_"  overflow="visible"/>
		</clipPath>
		
			<linearGradient id="SVGID_20_" gradientUnits="userSpaceOnUse" x1="0" y1="215.5" x2="1" y2="215.5" gradientTransform="matrix(5.9653 -100.217 100.217 5.9653 -21051.4355 -1074.3707)">
			<stop  offset="0" style="stop-color:#60DAF3"/>
			<stop  offset="0.0044" style="stop-color:#5FDAF3"/>
			<stop  offset="0.1944" style="stop-color:#3DC6E1"/>
			<stop  offset="0.3881" style="stop-color:#22B7D3"/>
			<stop  offset="0.5849" style="stop-color:#0FADC9"/>
			<stop  offset="0.7864" style="stop-color:#04A6C3"/>
			<stop  offset="1" style="stop-color:#00A4C1"/>
		</linearGradient>
		<polygon clip-path="url(#SVGID_19_)" fill="url(#SVGID_20_)" points="586.918,121.448 591.081,51.503 518.742,47.198 
			514.579,117.143 		"/>
	</g>
	<g clip-path="url(#SVGID_2_)">
		<defs>
			<polygon id="SVGID_21_" points="187.667,133.559 187.667,199.665 187.677,199.665 205.992,199.665 205.992,176.056 
				237.25,176.056 237.25,160.852 205.992,160.852 205.992,149.614 240.557,149.614 240.557,133.559 			"/>
		</defs>
		<clipPath id="SVGID_22_">
			<use xlink:href="#SVGID_21_"  overflow="visible"/>
		</clipPath>
		
			<linearGradient id="SVGID_23_" gradientUnits="userSpaceOnUse" x1="0" y1="215.5" x2="1" y2="215.5" gradientTransform="matrix(5.9653 -100.217 100.217 5.9653 -21384.123 -1094.1832)">
			<stop  offset="0" style="stop-color:#60DAF3"/>
			<stop  offset="0.0044" style="stop-color:#5FDAF3"/>
			<stop  offset="0.1944" style="stop-color:#3DC6E1"/>
			<stop  offset="0.3881" style="stop-color:#22B7D3"/>
			<stop  offset="0.5849" style="stop-color:#0FADC9"/>
			<stop  offset="0.7864" style="stop-color:#04A6C3"/>
			<stop  offset="1" style="stop-color:#00A4C1"/>
		</linearGradient>
		<polygon clip-path="url(#SVGID_22_)" fill="url(#SVGID_23_)" points="240.37,202.802 244.478,133.792 187.854,130.422 
			183.746,199.432 		"/>
	</g>
	<g clip-path="url(#SVGID_2_)">
		<defs>
			<path id="SVGID_24_" d="M250.263,108.156v0.007v62.51c0,20.681,11.803,30.22,30.597,30.22c18.793,0,30.974-9.351,30.974-30.692
				v-36.642h-18.601v37.207c0,9.256-4.815,13.602-12.181,13.602c-7.367,0-12.188-4.534-12.188-14.073v-62.138H250.263z"/>
		</defs>
		<clipPath id="SVGID_25_">
			<use xlink:href="#SVGID_24_"  overflow="visible"/>
		</clipPath>
		
			<linearGradient id="SVGID_26_" gradientUnits="userSpaceOnUse" x1="0" y1="215.5" x2="1" y2="215.5" gradientTransform="matrix(5.9653 -100.217 100.217 5.9653 -21318.1855 -1090.3082)">
			<stop  offset="0" style="stop-color:#60DAF3"/>
			<stop  offset="0.0044" style="stop-color:#5FDAF3"/>
			<stop  offset="0.1944" style="stop-color:#3DC6E1"/>
			<stop  offset="0.3881" style="stop-color:#22B7D3"/>
			<stop  offset="0.5849" style="stop-color:#0FADC9"/>
			<stop  offset="0.7864" style="stop-color:#04A6C3"/>
			<stop  offset="1" style="stop-color:#00A4C1"/>
		</linearGradient>
		<polygon clip-path="url(#SVGID_25_)" fill="url(#SVGID_26_)" points="311.616,204.545 317.335,108.483 250.48,104.504 
			244.762,200.565 		"/>
	</g>
	<g clip-path="url(#SVGID_2_)">
		<defs>
			<polygon id="SVGID_27_" points="319.047,133.559 319.047,149.614 338.886,149.614 338.886,199.665 357.202,199.665 
				357.202,149.614 377.034,149.614 377.034,133.559 			"/>
		</defs>
		<clipPath id="SVGID_28_">
			<use xlink:href="#SVGID_27_"  overflow="visible"/>
		</clipPath>
		
			<linearGradient id="SVGID_29_" gradientUnits="userSpaceOnUse" x1="0" y1="215.499" x2="1" y2="215.499" gradientTransform="matrix(5.9653 -100.217 100.217 5.9653 -21250.5605 -1086.2457)">
			<stop  offset="0" style="stop-color:#60DAF3"/>
			<stop  offset="0.0044" style="stop-color:#5FDAF3"/>
			<stop  offset="0.1944" style="stop-color:#3DC6E1"/>
			<stop  offset="0.3881" style="stop-color:#22B7D3"/>
			<stop  offset="0.5849" style="stop-color:#0FADC9"/>
			<stop  offset="0.7864" style="stop-color:#04A6C3"/>
			<stop  offset="1" style="stop-color:#00A4C1"/>
		</linearGradient>
		<polygon clip-path="url(#SVGID_28_)" fill="url(#SVGID_29_)" points="376.829,203.104 380.955,133.792 319.252,130.119 
			315.126,199.432 		"/>
	</g>
	<g clip-path="url(#SVGID_2_)">
		<defs>
			<path id="SVGID_30_" d="M427.216,133.559v37.207c0,9.256-4.813,13.602-12.18,13.602c-7.368,0-12.189-4.534-12.189-14.073v-36.735
				h-18.6v0.008v37.106c0,20.681,11.802,30.22,30.596,30.22s30.977-9.351,30.977-30.692v-36.642H427.216z"/>
		</defs>
		<clipPath id="SVGID_31_">
			<use xlink:href="#SVGID_30_"  overflow="visible"/>
		</clipPath>
		
			<linearGradient id="SVGID_32_" gradientUnits="userSpaceOnUse" x1="0" y1="215.5" x2="1" y2="215.5" gradientTransform="matrix(5.9653 -100.217 100.217 5.9653 -21183.8105 -1082.2457)">
			<stop  offset="0" style="stop-color:#60DAF3"/>
			<stop  offset="0.0044" style="stop-color:#5FDAF3"/>
			<stop  offset="0.1944" style="stop-color:#3DC6E1"/>
			<stop  offset="0.3881" style="stop-color:#22B7D3"/>
			<stop  offset="0.5849" style="stop-color:#0FADC9"/>
			<stop  offset="0.7864" style="stop-color:#04A6C3"/>
			<stop  offset="1" style="stop-color:#00A4C1"/>
		</linearGradient>
		<polygon clip-path="url(#SVGID_31_)" fill="url(#SVGID_32_)" points="445.602,204.545 449.813,133.797 384.465,129.907 
			380.253,200.655 		"/>
	</g>
	<g clip-path="url(#SVGID_2_)">
		<defs>
			<path id="SVGID_33_" d="M473.934,149.422h11.995c6.137,0,9.912,2.646,9.912,7.84v0.188c0,4.817-3.583,7.84-9.818,7.84h-12.089
				V149.422z M455.61,133.559v66.106h0.009h18.314v-20.023h7.833h0.194l13.318,20.023h21.152l-15.77-23.045
				c8.213-3.492,13.596-10.197,13.596-20.301v-0.191c0-6.514-1.982-11.616-5.853-15.392c-4.444-4.534-11.429-7.178-21.53-7.178
				H455.61z"/>
		</defs>
		<clipPath id="SVGID_34_">
			<use xlink:href="#SVGID_33_"  overflow="visible"/>
		</clipPath>
		
			<linearGradient id="SVGID_35_" gradientUnits="userSpaceOnUse" x1="0" y1="215.5" x2="1" y2="215.5" gradientTransform="matrix(5.9653 -100.217 100.217 5.9653 -21113.125 -1078.0643)">
			<stop  offset="0" style="stop-color:#60DAF3"/>
			<stop  offset="0.0044" style="stop-color:#5FDAF3"/>
			<stop  offset="0.1944" style="stop-color:#3DC6E1"/>
			<stop  offset="0.3881" style="stop-color:#22B7D3"/>
			<stop  offset="0.5849" style="stop-color:#0FADC9"/>
			<stop  offset="0.7864" style="stop-color:#04A6C3"/>
			<stop  offset="1" style="stop-color:#00A4C1"/>
		</linearGradient>
		<polygon clip-path="url(#SVGID_34_)" fill="url(#SVGID_35_)" points="516.217,203.272 520.353,133.792 455.824,129.951 
			451.689,199.432 		"/>
	</g>
	<g clip-path="url(#SVGID_2_)">
		<defs>
			<polygon id="SVGID_36_" points="8.116,73.284 66.481,107.141 66.658,129.576 8.116,95.924 8.116,118.299 66.54,152.244 
				66.509,174.642 8.116,140.443 8.116,163.227 85.95,208.624 85.95,96.012 8.116,49.949 			"/>
		</defs>
		<clipPath id="SVGID_37_">
			<use xlink:href="#SVGID_36_"  overflow="visible"/>
		</clipPath>
		
			<linearGradient id="SVGID_38_" gradientUnits="userSpaceOnUse" x1="0" y1="215.5" x2="1" y2="215.5" gradientTransform="matrix(90.6725 -264.8591 264.8591 90.6725 -57040.2422 -19381.1641)">
			<stop  offset="0" style="stop-color:#60DAF3"/>
			<stop  offset="0.0044" style="stop-color:#5FDAF3"/>
			<stop  offset="0.1944" style="stop-color:#3DC6E1"/>
			<stop  offset="0.3881" style="stop-color:#22B7D3"/>
			<stop  offset="0.5849" style="stop-color:#0FADC9"/>
			<stop  offset="0.7864" style="stop-color:#04A6C3"/>
			<stop  offset="1" style="stop-color:#00A4C1"/>
		</linearGradient>
		<polygon clip-path="url(#SVGID_37_)" fill="url(#SVGID_38_)" points="77.785,232.475 134.573,66.595 16.281,26.099 
			-40.507,191.979 		"/>
	</g>
	<g clip-path="url(#SVGID_2_)">
		<defs>
			<rect id="SVGID_39_" width="595.276" height="215.5"/>
		</defs>
		<clipPath id="SVGID_40_">
			<use xlink:href="#SVGID_39_"  overflow="visible"/>
		</clipPath>
		<g opacity="0.78" clip-path="url(#SVGID_40_)">
			<g>
				<defs>
					<rect id="SVGID_41_" x="37.801" y="27.629" width="174.112" height="204.834"/>
				</defs>
				<clipPath id="SVGID_42_">
					<use xlink:href="#SVGID_41_"  overflow="visible"/>
				</clipPath>
				<g clip-path="url(#SVGID_42_)">
					<defs>
						<polygon id="SVGID_43_" points="163.752,51.471 85.958,96.008 85.958,208.623 105.49,197.581 105.49,152.594 163.756,119.061 
							163.756,96.282 105.49,130.277 105.49,107.784 163.756,73.892 163.756,51.471 						"/>
					</defs>
					<clipPath id="SVGID_44_">
						<use xlink:href="#SVGID_43_"  overflow="visible"/>
					</clipPath>
					
						<linearGradient id="SVGID_45_" gradientUnits="userSpaceOnUse" x1="0" y1="215.5" x2="1" y2="215.5" gradientTransform="matrix(90.6725 -264.8591 264.8591 90.6725 -56970.3008 -19356.9844)">
						<stop  offset="0" style="stop-color:#60DAF3"/>
						<stop  offset="0.0044" style="stop-color:#5FDAF3"/>
						<stop  offset="0.1944" style="stop-color:#3DC6E1"/>
						<stop  offset="0.3881" style="stop-color:#22B7D3"/>
						<stop  offset="0.5849" style="stop-color:#0FADC9"/>
						<stop  offset="0.7864" style="stop-color:#04A6C3"/>
						<stop  offset="1" style="stop-color:#00A4C1"/>
					</linearGradient>
					<polygon clip-path="url(#SVGID_44_)" fill="url(#SVGID_45_)" points="155.595,232.463 211.912,67.957 94.119,27.631 
						37.802,192.137 					"/>
				</g>
			</g>
		</g>
		<g opacity="0.78" clip-path="url(#SVGID_40_)">
			<g>
				<defs>
					<rect id="SVGID_46_" x="76.127" y="46.603" width="97.46" height="166.886"/>
				</defs>
				<clipPath id="SVGID_47_">
					<use xlink:href="#SVGID_46_"  overflow="visible"/>
				</clipPath>
				<g clip-path="url(#SVGID_47_)">
					<defs>
						<polygon id="SVGID_48_" points="163.753,51.471 85.958,96.008 85.958,208.623 105.49,197.581 105.49,152.594 163.756,119.061 
							163.756,96.282 105.49,130.277 105.49,107.784 163.756,73.892 163.756,51.471 						"/>
					</defs>
					<clipPath id="SVGID_49_">
						<use xlink:href="#SVGID_48_"  overflow="visible"/>
					</clipPath>
					<defs>
						<filter id="Adobe_OpacityMaskFilter" filterUnits="userSpaceOnUse" x="65.688" y="40.506" width="118.339" height="179.08">
							<feColorMatrix  type="matrix" values="1 0 0 0 0  0 1 0 0 0  0 0 1 0 0  0 0 0 1 0"/>
						</filter>
					</defs>
					<mask maskUnits="userSpaceOnUse" x="65.688" y="40.506" width="118.339" height="179.08" id="SVGID_50_">
						<g filter="url(#Adobe_OpacityMaskFilter)">
							<rect x="76.127" y="46.603" clip-path="url(#SVGID_49_)" width="97.46" height="166.887"/>
							<g enable-background="new    ">
								<g>
									<defs>
										
											<rect id="SVGID_51_" x="81.11" y="49.185" transform="matrix(0.998 -0.0627 0.0627 0.998 -7.9047 8.0806)" width="87.495" height="161.721"/>
									</defs>
									<clipPath id="SVGID_52_" clip-path="url(#SVGID_49_)">
										<use xlink:href="#SVGID_51_"  overflow="visible"/>
									</clipPath>
									
										<linearGradient id="SVGID_53_" gradientUnits="userSpaceOnUse" x1="0" y1="215.499" x2="1" y2="215.499" gradientTransform="matrix(-82.3211 5.1699 -5.1699 -82.3211 1320.2745 17865.1328)">
										<stop  offset="0" style="stop-color:#FFFFFF"/>
										<stop  offset="0.0056" style="stop-color:#FFFFFF"/>
										<stop  offset="1" style="stop-color:#1D1D1B"/>
									</linearGradient>
									<polygon clip-path="url(#SVGID_52_)" fill="url(#SVGID_53_)" points="173.204,40.506 65.688,47.259 76.51,219.586 
										184.026,212.833 									"/>
								</g>
							</g>
						</g>
					</mask>
					<g clip-path="url(#SVGID_49_)" mask="url(#SVGID_50_)">
						<g>
							<defs>
								<rect id="SVGID_54_" x="76.127" y="46.603" width="97.46" height="166.886"/>
							</defs>
							<clipPath id="SVGID_55_">
								<use xlink:href="#SVGID_54_"  overflow="visible"/>
							</clipPath>
							<g clip-path="url(#SVGID_55_)">
								<defs>
									
										<rect id="SVGID_56_" x="81.11" y="49.185" transform="matrix(0.998 -0.0627 0.0627 0.998 -7.9047 8.0806)" width="87.495" height="161.721"/>
								</defs>
								<clipPath id="SVGID_57_">
									<use xlink:href="#SVGID_56_"  overflow="visible"/>
								</clipPath>
								
									<linearGradient id="SVGID_58_" gradientUnits="userSpaceOnUse" x1="0" y1="215.5" x2="1" y2="215.5" gradientTransform="matrix(-82.3211 5.1699 -5.1699 -82.3211 1320.2729 17865.1367)">
									<stop  offset="0" style="stop-color:#000000"/>
									<stop  offset="0.0056" style="stop-color:#000000"/>
									<stop  offset="1" style="stop-color:#000000"/>
								</linearGradient>
								<polygon clip-path="url(#SVGID_57_)" fill="url(#SVGID_58_)" points="173.204,40.506 65.688,47.259 76.51,219.586 
									184.026,212.833 								"/>
							</g>
						</g>
					</g>
				</g>
			</g>
		</g>
	</g>
	<g clip-path="url(#SVGID_2_)">
		<defs>
			<polygon id="SVGID_59_" points="27.527,39.56 85.95,74.016 144.413,39.577 85.95,6.302 			"/>
		</defs>
		<clipPath id="SVGID_60_">
			<use xlink:href="#SVGID_59_"  overflow="visible"/>
		</clipPath>
		
			<linearGradient id="SVGID_61_" gradientUnits="userSpaceOnUse" x1="0" y1="215.5" x2="1" y2="215.5" gradientTransform="matrix(90.6725 -264.8591 264.8591 90.6725 -57032.4922 -19378.2891)">
			<stop  offset="0" style="stop-color:#60DAF3"/>
			<stop  offset="0.0044" style="stop-color:#5FDAF3"/>
			<stop  offset="0.1944" style="stop-color:#3DC6E1"/>
			<stop  offset="0.3881" style="stop-color:#22B7D3"/>
			<stop  offset="0.5849" style="stop-color:#0FADC9"/>
			<stop  offset="0.7864" style="stop-color:#04A6C3"/>
			<stop  offset="1" style="stop-color:#00A4C1"/>
		</linearGradient>
		<polygon clip-path="url(#SVGID_60_)" fill="url(#SVGID_61_)" points="132.151,109.833 165.163,13.405 39.789,-29.515 
			6.777,66.913 		"/>
	</g>
</g>
</svg>
