<?xml version="1.0" encoding="utf-8"?>
<!-- Generator: Adobe Illustrator 16.0.3, SVG Export Plug-In . SVG Version: 6.00 Build 0)  -->
<!DOCTYPE svg PUBLIC "-//W3C//DTD SVG 1.1//EN" "http://www.w3.org/Graphics/SVG/1.1/DTD/svg11.dtd">
<svg version="1.1" id="Capa_1" xmlns="http://www.w3.org/2000/svg" xmlns:xlink="http://www.w3.org/1999/xlink" x="0px" y="0px"
	 width="595.276px" height="595.276px" viewBox="0 0 595.276 595.276" enable-background="new 0 0 595.276 595.276"
	 xml:space="preserve">
<g>
	<defs>
		<rect id="SVGID_1_" width="595.276" height="595.276"/>
	</defs>
	<clipPath id="SVGID_2_">
		<use xlink:href="#SVGID_1_"  overflow="visible"/>
	</clipPath>
	<polygon clip-path="url(#SVGID_2_)" fill="#00A4C1" points="72.346,20.107 132.32,20.107 132.32,37.682 92.797,37.682 
		92.797,48.972 128.591,48.972 128.591,65.269 92.797,65.269 92.797,77.092 132.849,77.092 132.849,94.667 72.346,94.667 	"/>
	<g clip-path="url(#SVGID_2_)">
		<defs>
			<polygon id="SVGID_3_" points="142.947,20.108 162.711,20.108 193.387,59.518 193.387,20.108 213.838,20.108 213.838,94.668 
				195.737,94.668 163.881,53.766 163.881,94.668 142.947,94.668 			"/>
		</defs>
		<clipPath id="SVGID_4_">
			<use xlink:href="#SVGID_3_"  overflow="visible"/>
		</clipPath>
		
			<linearGradient id="SVGID_5_" gradientUnits="userSpaceOnUse" x1="0" y1="595.2759" x2="1" y2="595.2759" gradientTransform="matrix(-2.6913 -188.3894 -188.3894 2.6913 112326.75 -1213.39)">
			<stop  offset="0" style="stop-color:#60DAF3"/>
			<stop  offset="0.0055" style="stop-color:#5FD9F2"/>
			<stop  offset="0.1949" style="stop-color:#3DC6E1"/>
			<stop  offset="0.3881" style="stop-color:#22B7D3"/>
			<stop  offset="0.5845" style="stop-color:#0FACC9"/>
			<stop  offset="0.7859" style="stop-color:#04A6C3"/>
			<stop  offset="1" style="stop-color:#00A4C1"/>
		</linearGradient>
		<polygon clip-path="url(#SVGID_4_)" fill="url(#SVGID_5_)" points="142.961,95.681 141.882,20.123 213.824,19.095 214.903,94.653 
					"/>
	</g>
	<polygon clip-path="url(#SVGID_2_)" fill="#00A4C1" points="227.09,20.107 287.064,20.107 287.064,37.682 247.541,37.682 
		247.541,48.972 283.335,48.972 283.335,65.269 247.541,65.269 247.541,77.092 287.593,77.092 287.593,94.667 227.09,94.667 	"/>
	<g clip-path="url(#SVGID_2_)">
		<defs>
			<rect id="SVGID_6_" width="595.276" height="595.276"/>
		</defs>
		<clipPath id="SVGID_7_">
			<use xlink:href="#SVGID_6_"  overflow="visible"/>
		</clipPath>
		<path clip-path="url(#SVGID_7_)" fill="#00A4C1" d="M298.174,20.107h35.265c11.396,0,19.271,2.982,24.284,8.095
			c4.362,4.26,6.601,10.013,6.601,17.361v0.214c0,11.397-6.071,18.96-15.334,22.899l17.788,25.992h-23.859l-15.021-22.583h-0.217
			h-8.838v22.583h-20.668V20.107z M332.476,55.897c7.034,0,11.076-3.409,11.076-8.842v-0.213c0-5.859-4.259-8.842-11.181-8.842
			h-13.529v17.897H332.476z"/>
		<path clip-path="url(#SVGID_7_)" fill="#00A4C1" d="M371.004,57.601v-0.215c0-21.728,17.043-38.77,40.156-38.77
			c13.097,0,22.368,4.046,30.252,10.863L429.27,44.073c-5.334-4.475-10.659-7.032-18.005-7.032
			c-10.755,0-19.063,9.055-19.063,20.452v0.214c0,12.036,8.413,20.664,20.234,20.664c5.004,0,8.838-1.065,11.934-3.09v-9.053h-14.7
			V51.103h34.293v33.551c-7.875,6.499-18.847,11.505-32.377,11.505C388.367,96.159,371.004,80.181,371.004,57.601"/>
		<polygon clip-path="url(#SVGID_7_)" fill="#00A4C1" points="473.823,66.76 445.488,20.108 469.035,20.108 484.369,47.267 
			499.815,20.108 522.93,20.108 494.595,66.441 494.595,94.668 473.823,94.668 		"/>
		<polygon clip-path="url(#SVGID_7_)" fill="#60DAF3" points="72.346,508.232 131.999,508.232 131.999,526.338 93.014,526.338 
			93.014,539.015 128.269,539.015 128.269,556.164 93.014,556.164 93.014,582.792 72.346,582.792 		"/>
	</g>
	<g clip-path="url(#SVGID_2_)">
		<defs>
			<path id="SVGID_8_" d="M142.947,76.937v473.155c0,23.326,13.314,34.085,34.511,34.085c21.196,0,34.934-10.546,34.934-34.618
				v-41.327h-20.98v41.967c0,10.438-5.429,15.337-13.739,15.337c-8.307,0-13.746-5.111-13.746-15.87V76.937H142.947z"/>
		</defs>
		<clipPath id="SVGID_9_">
			<use xlink:href="#SVGID_8_"  overflow="visible"/>
		</clipPath>
		
			<linearGradient id="SVGID_10_" gradientUnits="userSpaceOnUse" x1="0" y1="595.2603" x2="1" y2="595.2603" gradientTransform="matrix(-2.6913 -188.3894 -188.3894 2.6913 112319.25 -1213.265)">
			<stop  offset="0" style="stop-color:#60DAF3"/>
			<stop  offset="0.0055" style="stop-color:#5FD9F2"/>
			<stop  offset="0.1949" style="stop-color:#3DC6E1"/>
			<stop  offset="0.3881" style="stop-color:#22B7D3"/>
			<stop  offset="0.5845" style="stop-color:#0FACC9"/>
			<stop  offset="0.7859" style="stop-color:#04A6C3"/>
			<stop  offset="1" style="stop-color:#00A4C1"/>
		</linearGradient>
		<polygon clip-path="url(#SVGID_9_)" fill="url(#SVGID_10_)" points="142.961,585.168 135.702,77.041 212.378,75.945 
			219.637,584.074 		"/>
	</g>
	<g clip-path="url(#SVGID_2_)">
		<defs>
			<rect id="SVGID_11_" width="595.276" height="595.276"/>
		</defs>
		<clipPath id="SVGID_12_">
			<use xlink:href="#SVGID_11_"  overflow="visible"/>
		</clipPath>
		<polygon clip-path="url(#SVGID_12_)" fill="#60DAF3" points="242.904,526.339 220.528,526.339 220.528,508.232 285.931,508.232 
			285.931,526.339 263.563,526.339 263.563,582.792 242.904,582.792 		"/>
		<path clip-path="url(#SVGID_12_)" fill="#60DAF3" d="M294.066,550.092v-41.86h20.98v41.433c0,10.76,5.438,15.871,13.747,15.871
			c8.308,0,13.738-4.898,13.738-15.338v-41.966h20.979v41.327c0,24.072-13.738,34.618-34.935,34.618
			C307.379,584.177,294.066,573.418,294.066,550.092"/>
		<path clip-path="url(#SVGID_12_)" fill="#60DAF3" d="M374.555,508.232h35.264c11.396,0,19.271,2.98,24.285,8.095
			c4.362,4.26,6.6,10.012,6.6,17.361v0.214c0,11.396-6.071,18.96-15.334,22.898l17.789,25.992h-23.86l-15.021-22.584h-0.217h-8.838
			v22.584h-20.667V508.232z M408.856,544.022c7.033,0,11.075-3.409,11.075-8.844v-0.212c0-5.858-4.259-8.842-11.179-8.842h-13.531
			v17.897H408.856z"/>
	</g>
	<g clip-path="url(#SVGID_2_)">
		<defs>
			<polygon id="SVGID_13_" points="198.158,262.848 263.987,301.035 264.185,326.338 198.158,288.382 198.158,313.62 
				264.053,351.905 264.02,377.168 198.158,338.595 198.158,364.294 285.946,415.495 285.946,288.483 198.158,236.527 			"/>
		</defs>
		<clipPath id="SVGID_14_">
			<use xlink:href="#SVGID_13_"  overflow="visible"/>
		</clipPath>
		
			<linearGradient id="SVGID_15_" gradientUnits="userSpaceOnUse" x1="0" y1="595.2759" x2="1" y2="595.2759" gradientTransform="matrix(621.6849 180.3155 180.3155 -621.6849 -107239.8281 370358.3125)">
			<stop  offset="0" style="stop-color:#60DAF3"/>
			<stop  offset="0.0055" style="stop-color:#5FD9F2"/>
			<stop  offset="0.1949" style="stop-color:#3DC6E1"/>
			<stop  offset="0.3881" style="stop-color:#22B7D3"/>
			<stop  offset="0.5845" style="stop-color:#0FACC9"/>
			<stop  offset="0.7859" style="stop-color:#04A6C3"/>
			<stop  offset="1" style="stop-color:#00A4C1"/>
		</linearGradient>
		<polygon clip-path="url(#SVGID_14_)" fill="url(#SVGID_15_)" points="204.97,213.041 333.826,250.415 279.134,438.981 
			150.277,401.608 		"/>
	</g>
	<g clip-path="url(#SVGID_2_)">
		<defs>
			<rect id="SVGID_16_" width="595.276" height="595.276"/>
		</defs>
		<clipPath id="SVGID_17_">
			<use xlink:href="#SVGID_16_"  overflow="visible"/>
		</clipPath>
		<g opacity="0.78" clip-path="url(#SVGID_17_)">
			<g>
				<defs>
					<rect id="SVGID_18_" x="285.955" y="238.243" width="87.748" height="177.252"/>
				</defs>
				<clipPath id="SVGID_19_">
					<use xlink:href="#SVGID_18_"  overflow="visible"/>
				</clipPath>
				<g clip-path="url(#SVGID_19_)">
					<defs>
						<polygon id="SVGID_20_" points="285.955,288.477 373.703,238.243 373.703,263.533 307.985,301.759 307.985,327.128 
							373.703,288.786 373.703,314.477 307.985,352.301 307.985,403.04 285.955,415.494 						"/>
					</defs>
					<clipPath id="SVGID_21_">
						<use xlink:href="#SVGID_20_"  overflow="visible"/>
					</clipPath>
					
						<linearGradient id="SVGID_22_" gradientUnits="userSpaceOnUse" x1="0" y1="595.2769" x2="1" y2="595.2769" gradientTransform="matrix(621.6849 180.3155 180.3155 -621.6849 -107233.3281 370335.5625)">
						<stop  offset="0" style="stop-color:#60DAF3"/>
						<stop  offset="0.0055" style="stop-color:#5FD9F2"/>
						<stop  offset="0.1949" style="stop-color:#3DC6E1"/>
						<stop  offset="0.3881" style="stop-color:#22B7D3"/>
						<stop  offset="0.5845" style="stop-color:#0FACC9"/>
						<stop  offset="0.7859" style="stop-color:#04A6C3"/>
						<stop  offset="1" style="stop-color:#00A4C1"/>
					</linearGradient>
					<polygon clip-path="url(#SVGID_21_)" fill="url(#SVGID_22_)" points="292.764,214.767 421.124,251.997 366.894,438.969 
						238.534,401.74 					"/>
				</g>
			</g>
		</g>
	</g>
	<g clip-path="url(#SVGID_2_)">
		<defs>
			<polygon id="SVGID_23_" points="220.052,224.811 285.946,263.671 351.886,224.829 285.946,187.298 			"/>
		</defs>
		<clipPath id="SVGID_24_">
			<use xlink:href="#SVGID_23_"  overflow="visible"/>
		</clipPath>
		
			<linearGradient id="SVGID_25_" gradientUnits="userSpaceOnUse" x1="0" y1="595.2759" x2="1" y2="595.2759" gradientTransform="matrix(621.6849 180.3155 180.3155 -621.6849 -107209.3281 370253.8125)">
			<stop  offset="0" style="stop-color:#60DAF3"/>
			<stop  offset="0.0055" style="stop-color:#5FD9F2"/>
			<stop  offset="0.1949" style="stop-color:#3DC6E1"/>
			<stop  offset="0.3881" style="stop-color:#22B7D3"/>
			<stop  offset="0.5845" style="stop-color:#0FACC9"/>
			<stop  offset="0.7859" style="stop-color:#04A6C3"/>
			<stop  offset="1" style="stop-color:#00A4C1"/>
		</linearGradient>
		<polygon clip-path="url(#SVGID_24_)" fill="url(#SVGID_25_)" points="230.282,152.027 372.318,193.224 341.656,298.941 
			199.62,257.745 		"/>
	</g>
</g>
</svg>
