<?xml version="1.0" encoding="utf-8"?>
<!-- Generator: Adobe Illustrator 16.0.3, SVG Export Plug-In . SVG Version: 6.00 Build 0)  -->
<!DOCTYPE svg PUBLIC "-//W3C//DTD SVG 1.1//EN" "http://www.w3.org/Graphics/SVG/1.1/DTD/svg11.dtd">
<svg version="1.1" id="Capa_1" xmlns="http://www.w3.org/2000/svg" xmlns:xlink="http://www.w3.org/1999/xlink" x="0px" y="0px"
	 width="1200px" height="1200px" viewBox="-229 -324 1200 1200" enable-background="new -229 -324 1200 1200" xml:space="preserve">
<g>
	<linearGradient id="SVGID_1_" gradientUnits="userSpaceOnUse" x1="-14.6411" y1="394.4365" x2="177.8306" y2="394.4365">
		<stop  offset="0" style="stop-color:#60DAF3"/>
		<stop  offset="0.0055" style="stop-color:#5FD9F2"/>
		<stop  offset="0.1949" style="stop-color:#3DC6E1"/>
		<stop  offset="0.3881" style="stop-color:#22B7D3"/>
		<stop  offset="0.5845" style="stop-color:#0FACC9"/>
		<stop  offset="0.7859" style="stop-color:#04A6C3"/>
		<stop  offset="1" style="stop-color:#00A4C1"/>
	</linearGradient>
	<path fill="url(#SVGID_1_)" d="M177.831,355.945v-19.25H-14.641v19.25c0,53.064,43.177,96.232,96.232,96.232
		C134.657,452.178,177.831,409,177.831,355.945z M81.6,413.682c-25.094,0-46.502-16.089-54.451-38.498H136.05
		C128.103,397.595,106.693,413.682,81.6,413.682z"/>
	<linearGradient id="SVGID_2_" gradientUnits="userSpaceOnUse" x1="-91.6206" y1="259.7222" x2="62.3511" y2="259.7222">
		<stop  offset="0" style="stop-color:#60DAF3"/>
		<stop  offset="0.0055" style="stop-color:#5FD9F2"/>
		<stop  offset="0.1949" style="stop-color:#3DC6E1"/>
		<stop  offset="0.3881" style="stop-color:#22B7D3"/>
		<stop  offset="0.5845" style="stop-color:#0FACC9"/>
		<stop  offset="0.7859" style="stop-color:#04A6C3"/>
		<stop  offset="1" style="stop-color:#00A4C1"/>
	</linearGradient>
	<path fill="url(#SVGID_2_)" d="M23.856,298.215h38.495c0-42.459-34.526-76.985-76.984-76.985
		c-42.458,0-76.987,34.526-76.987,76.985h38.499c0-21.233,17.263-38.496,38.494-38.496c21.217,0,38.481,17.288,38.481,38.496H23.856
		z"/>
	<linearGradient id="SVGID_3_" gradientUnits="userSpaceOnUse" x1="100.8535" y1="259.7236" x2="254.8228" y2="259.7236">
		<stop  offset="0" style="stop-color:#60DAF3"/>
		<stop  offset="0.0055" style="stop-color:#5FD9F2"/>
		<stop  offset="0.1949" style="stop-color:#3DC6E1"/>
		<stop  offset="0.3881" style="stop-color:#22B7D3"/>
		<stop  offset="0.5845" style="stop-color:#0FACC9"/>
		<stop  offset="0.7859" style="stop-color:#04A6C3"/>
		<stop  offset="1" style="stop-color:#00A4C1"/>
	</linearGradient>
	<path fill="url(#SVGID_3_)" d="M177.831,259.721c21.233,0,38.498,17.263,38.498,38.496h38.495
		c0-42.458-34.525-76.986-76.985-76.986c-42.458,0-76.984,34.527-76.984,76.986h38.494c-0.017-21.208,17.248-38.496,38.48-38.496
		H177.831z"/>
	<linearGradient id="SVGID_4_" gradientUnits="userSpaceOnUse" x1="-226.3223" y1="277.8403" x2="967.0127" y2="277.8403">
		<stop  offset="0" style="stop-color:#60DAF3"/>
		<stop  offset="0.0055" style="stop-color:#5FD9F2"/>
		<stop  offset="0.1949" style="stop-color:#3DC6E1"/>
		<stop  offset="0.3881" style="stop-color:#22B7D3"/>
		<stop  offset="0.5845" style="stop-color:#0FACC9"/>
		<stop  offset="0.7859" style="stop-color:#04A6C3"/>
		<stop  offset="1" style="stop-color:#00A4C1"/>
	</linearGradient>
	<path fill="url(#SVGID_4_)" d="M620.543,145.221v-39.472h57.745c95.524,0,173.227-77.704,173.227-173.226v-19.25h-96.231
		c-54.394,0-102.956,25.252-134.729,64.575v-34.3c23.384-14.779,76.984-56.302,76.984-126.532
		c0-87.86-84.047-130.919-87.635-132.711l-8.607-4.27l-8.605,4.311c-3.57,1.767-87.627,44.826-87.627,132.686
		c0,70.23,53.601,111.744,76.985,126.533v48.828c-24.485-25.019-58.554-40.631-96.23-40.631h-96.234v19.249
		c0,74.274,60.455,134.729,134.73,134.729h57.745v39.423c-72.758,3.77-141.544,28.739-199.321,72.022
		c4.403-18.074,6.846-36.611,6.846-55.16c0-137.157-111.595-248.748-248.748-248.748H1.646c-52.965,0-100.585,29.431-124.278,76.793
		l-1.385,2.794c-59.822,16.379-102.305,71.272-102.305,134.037v19.365c0,33.892,7.891,67.343,22.151,98.043
		c-13.661,13.894-22.151,32.909-22.151,53.908c0,42.46,34.529,76.987,76.985,76.987h3.888
		c12.743,62.514,55.876,114.08,113.246,138.583c-35.811,24.249-59.387,65.247-59.387,111.635v250.223h327.23V759.738
		c27.33-1.752,53.467-11.169,75.481-27.298c69.08,90.021,176.012,143.204,290.188,143.204
		c201.658,0,365.703-164.044,365.703-365.706c0.01-195.15-153.762-354.622-346.443-364.718H620.543z M524.311,67.251
		c-46.477,0-85.355-33.127-94.29-76.985l55.792-0.01c46.482,0,85.359,33.128,94.291,76.985L524.311,67.251z M755.273-48.238h56.377
		c-9.356,65.208-65.593,115.48-133.362,115.48h-56.376C631.284,2.043,687.506-48.238,755.273-48.238z M543.56-182.967
		c0-49.656,39.763-81.339,57.746-93.095c17.997,11.773,57.747,43.456,57.747,93.095c0,49.637-39.75,81.321-57.747,93.096
		C583.307-101.647,543.56-133.33,543.56-182.967z M928.5,509.942h-74.375c-7.238,0-13.979-3.603-17.98-9.605l-14.245-21.385
		c-11.183-16.746-29.872-26.753-50.008-26.753h-71.77c-7.239,0-13.976-3.604-17.981-9.607l-14.243-21.385
		c-11.185-16.748-29.874-26.754-50.009-26.754h-23.25c-9.933,0-18.532-6.714-20.94-16.361l-8.316-33.242
		c-1.117-4.445-0.809-9.023,0.9-13.262l27.521-68.81c5.755-14.377,5.755-30.24,0-44.617l-13.758-34.409
		c7.045-0.442,14.084-1.016,21.208-1.016c180.463,0.006,327.25,146.787,327.25,327.207H928.5z M599.646,708.721l14.586,14.588
		c4.029,4.028,6.313,9.591,6.313,15.271c0,11.891-9.684,21.573-21.575,21.573h-53.08c-31.741,0-57.554,24.827-59.664,56.052
		c-27.253-10.242-52.968-24.119-76.584-41.19l27.654-64.5c2.81-6.546,8.623-11.275,15.612-12.669l42.367-8.465
		c27.978-5.638,48.285-30.417,48.285-58.934v-31.143c0-4.269,1.253-8.432,3.621-11.967l18.498-27.756
		c11.918-17.897,13.335-40.957,3.736-60.188l-21.808-43.593c-5.772-11.584-15.322-21.134-26.872-26.888l-42.232-21.141
		c-7.373-3.693-11.935-11.083-11.935-19.298v-22.869c0-3.327,0.792-6.696,2.267-9.664l25.714-51.408
		c7.932-15.861,8.465-34.279,1.484-50.539l-19.898-46.461c20.674-8.565,42.223-14.896,64.382-19.033l17.591,43.978
		c2.057,5.179,2.057,10.875,0,16.054l-27.505,68.786c-4.713,11.76-5.604,24.504-2.52,36.895l8.316,33.259
		c6.694,26.796,30.652,45.502,58.275,45.502h23.253c7.239,0,13.977,3.604,17.981,9.606l14.242,21.386
		c11.187,16.746,29.875,26.753,50.006,26.753h71.773c7.237,0,13.978,3.603,17.979,9.607l14.245,21.385
		c11.183,16.746,29.874,26.752,50.006,26.752h71.907c-1.542,13.108-4.003,25.906-7.063,38.495h-103.34
		c-7.238,0-13.975-3.602-17.98-9.605l-14.244-21.385c-11.183-16.746-29.87-26.753-50.005-26.753h-80.991
		c-27.635,0-51.596,18.73-58.261,45.501l-10.299,41.207c-1.231,4.721-1.824,9.632-1.824,14.52v35.804
		c0,15.838,6.404,31.291,17.588,42.475H599.646z M59.281,650.484c-21.834-10.916-35.405-32.871-35.405-57.285
		c0-35.303,28.714-64.014,64.017-64.014h2.059c14.955,0,29.508,5.253,40.972,14.836l58.438,48.68
		c-13.276,38.026-43.25,68.42-81.262,82.188L59.281,650.484z M166.271,523.353c25.962-6.429,49.814-18.088,70.446-33.876
		c-0.381,6.84-1.117,13.626-1.117,20.466c0,23.963,2.459,47.815,7.064,71.199l-4.429,2.209L166.271,523.353z M312.584,259.724
		c21.233,0,38.496,17.265,38.496,38.497c0,21.233-17.262,38.496-38.496,38.496V336.7V259.724z M1.644-48.225h139.191
		c115.948,0,210.254,94.331,210.254,210.261c0,21.866-3.83,43.81-11.066,64.473c-8.55-3.294-17.748-5.27-27.434-5.27h-0.017v-13.627
		l0.017,0.017v-65.368c0-49.906-24.792-96.231-66.309-123.912L224.94,50.374c28.252,18.84,46.06,49.29,48.788,82.766
		c-13.143-7.583-26.988-13.877-41.146-19.44c-7.525-38.614-29.85-73.082-63.284-95.348l-21.343,32.023
		c28.255,18.838,46.062,49.29,48.79,82.764c-13.145-7.581-26.99-13.877-41.148-19.44c-7.522-38.614-29.847-73.08-63.283-95.348
		L70.972,50.377c28.272,18.839,46.076,49.328,48.789,82.82C76.05,108.121,26.297,93.893-24.149,92.26L-88.282,7.436l0.074-0.134
		C-71.096-26.932-36.66-48.225,1.646-48.225H1.644z M-187.828,298.218c0-21.233,17.263-38.496,38.496-38.496v76.985
		c-21.233,0.009-38.496-17.254-38.496-38.487V298.218z M-149.332,201.987v19.247c-7.563,0-14.704,1.426-21.617,3.46
		c-10.892-24.692-16.879-51.405-16.879-78.435v-19.365c0-43.785,28.739-81.954,69.596-95.232l53.816,71.199l-24.426,9.757
		c-36.762,14.702-60.488,49.798-60.488,89.368H-149.332z M-110.846,336.714V201.987c0-23.752,14.244-44.788,36.304-53.598
		l44.061-17.632c56.762,0.734,112.861,19.674,158.305,53.758l30.798,23.092v-50.789c16.249,7.696,31.759,16.862,46.18,27.696
		l30.808,23.109v-50.813c13.418,6.371,26.271,13.835,38.473,22.341l0.025,157.539c0,84.917-69.078,153.995-153.996,153.995H87.93
		l-44.795,0.01c-84.899,0-153.976-69.078-153.976-153.979L-110.846,336.714z M-53.1,837.135V625.412
		c0-37.939,22.251-70.504,54.217-86.165c-9.791,15.728-15.72,34.109-15.72,53.951c0,39.071,21.708,74.198,56.662,91.712
		l120.176,60.091c11.026,5.505,22.809,9.415,34.895,11.934v80.202L-53.1,837.135z M179.465,710.571l-27.738-13.877
		c29.873-18.071,53.625-45.02,68.135-76.895l16.749,50.217l36.495-12.186l-13.977-41.9l111.21-55.601v-31.143
		c0-21.232,17.264-38.494,38.497-38.494c21.232,0,38.495,17.263,38.495,38.494c0,19.017-8.104,37.221-22.234,49.95L296.681,694.717
		c-31.357,28.233-79.436,34.753-117.213,15.854H179.465z M340.332,707.201l110.496-99.452
		c22.251-20.014,34.994-48.637,34.994-78.568c0-42.46-34.527-76.988-76.985-76.988c-42.459,0-76.985,34.528-76.985,76.988
		l-0.008,7.354l-53.32,26.653c-2.86-17.545-4.418-35.368-4.418-53.249c0-23.118,2.559-46.134,7.329-68.577
		c12.936-19.865,22.384-42.174,27.298-66.15l3.86-0.007c42.458,0,76.984-34.527,76.984-76.987c0-11.167-2.503-21.734-6.797-31.316
		c18.189-16.379,37.863-30.58,58.805-42.34l19.09,44.593c2.503,5.831,2.309,12.434-0.542,18.13l-25.737,51.465
		c-4.146,8.339-6.313,17.631-6.313,26.852v22.867c0,22.886,12.717,43.503,33.218,53.743l42.25,21.134
		c4.155,2.061,7.583,5.486,9.644,9.666l21.808,43.615c3.461,6.916,2.942,15.205-1.327,21.637L515.178,566
		c-6.606,9.876-10.109,21.406-10.109,33.303v31.14c0,10.24-7.297,19.148-17.339,21.176l-42.368,8.465
		c-19.381,3.869-35.628,17.028-43.426,35.242l-23.249,54.242C364.814,736.666,351.954,722.538,340.332,707.201L340.332,707.201z
		 M601.291,837.135c-26.253,0-52.064-3.211-76.984-9.24v-7.682c0-11.891,9.684-21.573,21.574-21.573h53.08
		c33.129,0,60.077-26.946,60.077-60.073c0-15.82-6.415-31.3-17.594-42.475l-14.582-14.587c-4.028-4.019-6.322-9.583-6.322-15.262
		v-35.805c0-1.752,0.233-3.5,0.634-5.213l10.314-41.207c2.387-9.624,10.992-16.338,20.925-16.338h80.988
		c7.24,0,13.978,3.604,17.982,9.607l14.243,21.387c11.186,16.746,29.873,26.751,50.006,26.751h91.422
		c-46.831,123.522-166.033,211.708-305.752,211.708L601.291,837.135z"/>
</g>
</svg>
