<?xml version="1.0" encoding="utf-8"?>
<!-- Generator: Adobe Illustrator 16.0.3, SVG Export Plug-In . SVG Version: 6.00 Build 0)  -->
<!DOCTYPE svg PUBLIC "-//W3C//DTD SVG 1.1//EN" "http://www.w3.org/Graphics/SVG/1.1/DTD/svg11.dtd">
<svg version="1.1" id="Capa_1" xmlns="http://www.w3.org/2000/svg" xmlns:xlink="http://www.w3.org/1999/xlink" x="0px" y="0px"
	 width="1200px" height="1200px" viewBox="-244 -250 1200 1200" enable-background="new -244 -250 1200 1200" xml:space="preserve">
<linearGradient id="SVGID_1_" gradientUnits="userSpaceOnUse" x1="674.001" y1="461.8984" x2="734.1631" y2="461.8984">
	<stop  offset="0" style="stop-color:#60DAF3"/>
	<stop  offset="0.0055" style="stop-color:#5FD9F2"/>
	<stop  offset="0.1949" style="stop-color:#3DC6E1"/>
	<stop  offset="0.3881" style="stop-color:#22B7D3"/>
	<stop  offset="0.5845" style="stop-color:#0FACC9"/>
	<stop  offset="0.7859" style="stop-color:#04A6C3"/>
	<stop  offset="1" style="stop-color:#00A4C1"/>
</linearGradient>
<path fill="url(#SVGID_1_)" d="M734.163,461.899c0,16.606-13.465,30.08-30.081,30.08c-16.617,0-30.081-13.474-30.081-30.08
	c0-16.617,13.464-30.082,30.081-30.082C720.698,431.817,734.163,445.282,734.163,461.899"/>
<linearGradient id="SVGID_2_" gradientUnits="userSpaceOnUse" x1="-238.8896" y1="519.1123" x2="957.4189" y2="519.1123">
	<stop  offset="0" style="stop-color:#60DAF3"/>
	<stop  offset="0.0055" style="stop-color:#5FD9F2"/>
	<stop  offset="0.1949" style="stop-color:#3DC6E1"/>
	<stop  offset="0.3881" style="stop-color:#22B7D3"/>
	<stop  offset="0.5845" style="stop-color:#0FACC9"/>
	<stop  offset="0.7859" style="stop-color:#04A6C3"/>
	<stop  offset="1" style="stop-color:#00A4C1"/>
</linearGradient>
<path fill="url(#SVGID_2_)" d="M901.935,431.002h-45.588c-0.942,0-1.335-1.065-1.469-1.334
	c-27.811-70.862-84.767-133.693-165.646-181.295c-1.235-6.482-1.862-13.054-1.88-19.651c0.188-32.356,15.408-62.795,41.183-82.357
	c8.337-6.187,12.562-16.482,10.959-26.743c-1.425-10.286-8.264-19.015-17.915-22.856c-15.14-6.034-31.287-9.114-47.594-9.096
	c-29.563,0.108-58.22,10.18-81.345,28.596s-39.357,44.092-46.063,72.886c-0.466,0.214-1.012,0.214-1.477,0
	c-57.845-15.301-117.443-22.938-177.278-22.732c-272.74,0-495.608,154.956-505.508,347.618c-16.581-0.672-46.797-4.683-62.84-25.132
	c-14.307-17.52-14.97-45.597-2.936-83.028c2.282-7.02-1.55-14.558-8.56-16.85c-7.019-2.283-14.557,1.55-16.85,8.559
	c-15.236,46.528-13.366,83.021,7.495,108.428c23.125,29.277,62.703,34.497,83.693,35.159c4.817,95.196,60.297,183.166,157.49,248.95
	c0.77,0.412,1.11,1.325,0.805,2.14l-28.481,61.497c-6.231,13.375-6.857,28.687-1.736,42.517c4.98,13.842,15.345,25.077,28.75,31.158
	l38.37,17.781c13.331,6.204,28.589,6.875,42.421,1.871c13.831-5.015,25.11-15.301,31.377-28.614l27.539-60.029
	c0.179-0.393,0.501-0.697,0.904-0.849c0.403-0.153,0.842-0.136,1.235,0.043c66.88,20.994,136.596,31.552,206.697,31.291
	c74.45,0.395,148.455-11.576,218.997-35.436l40.108,69.385v0.01c7.323,12.676,19.4,21.907,33.556,25.665
	c4.701,1.325,9.553,1.997,14.44,2.005c9.723-0.018,19.267-2.596,27.674-7.484l36.636-21.263
	c12.794-7.287,22.094-19.437,25.801-33.688c3.858-14.208,1.889-29.366-5.479-42.114l-34.901-60.3c-0.581-0.697-0.581-1.71,0-2.408
	c59.512-40.137,105.51-97.309,131.956-164.044c0.261-0.681,0.888-1.146,1.604-1.199h43.188c14.888,0,29.178-5.916,39.705-16.444
	c10.529-10.528,16.447-24.817,16.447-39.706v-74.873c-0.035-14.754-5.873-28.899-16.259-39.386
	c-10.385-10.486-24.478-16.455-39.23-16.635L901.935,431.002z M931.344,562.027h0.01c0,16.24-13.171,29.41-29.419,29.41h-43.182
	c-11.969,0.107-22.624,7.609-26.741,18.854c-24.658,61.509-67.29,114.16-122.332,151.072c-12.024,8.524-15.613,24.78-8.291,37.576
	l34.899,60.298c3.921,6.794,4.934,14.897,2.811,22.453c-1.933,7.36-6.75,13.627-13.375,17.388l-36.633,21.119h0.009
	c-6.625,3.885-14.522,4.941-21.927,2.945c-7.358-1.935-13.634-6.751-17.385-13.376l-43.585-75.534l-5.883-13.365l-11.765,4.279
	c-70.814,25.346-145.52,38.113-220.732,37.697c-67.343,0.332-134.317-9.819-198.539-30.08c-13.67-4.433-28.49,2.059-34.498,15.104
	l-27.807,59.759c-6.912,14.208-23.984,20.181-38.238,13.377l-38.372-17.78c-6.938-3.16-12.292-8.998-14.844-16.18
	c-2.677-7.17-2.391-15.111,0.806-22.059l28.613-61.497v-0.009c5.882-12.731,1.558-27.853-10.162-35.561
	c-93.584-63.64-146.129-149.075-146.129-240.655c0-184.501,214.986-334.233,479.173-334.233
	c57.407-0.116,114.58,7.297,170.061,22.061c7.448,2.139,15.462,1.146,22.158-2.775c6.688-3.91,11.487-10.404,13.268-17.949
	c6.93-29.285,26.207-54.129,52.842-68.125c26.633-14.001,58.021-15.775,86.074-4.879c0.725,0.278,1.2,0.967,1.2,1.746
	c0.214,0.421,0.214,0.914,0,1.334c-32.635,24.746-51.829,63.324-51.873,104.283c-0.296,8.228,0.195,16.464,1.477,24.602
	c1.558,7.87,6.428,14.683,13.366,18.711c74.873,44.389,127.943,101.615,153.611,167.526c4.217,11.075,14.897,18.336,26.742,18.184
	h45.591c7.786-0.036,15.272,3.034,20.788,8.522c5.524,5.498,8.63,12.964,8.63,20.753L931.344,562.027z"/>
<linearGradient id="SVGID_3_" gradientUnits="userSpaceOnUse" x1="-49.8306" y1="-59.6465" x2="330.6626" y2="-59.6465">
	<stop  offset="0" style="stop-color:#60DAF3"/>
	<stop  offset="0.0055" style="stop-color:#5FD9F2"/>
	<stop  offset="0.1949" style="stop-color:#3DC6E1"/>
	<stop  offset="0.3881" style="stop-color:#22B7D3"/>
	<stop  offset="0.5845" style="stop-color:#0FACC9"/>
	<stop  offset="0.7859" style="stop-color:#04A6C3"/>
	<stop  offset="1" style="stop-color:#00A4C1"/>
</linearGradient>
<path fill="url(#SVGID_3_)" d="M140.416,130.6c50.459,0,98.849-20.045,134.524-55.72c35.677-35.677,55.723-84.07,55.723-134.526
	c0-50.458-20.046-98.849-55.723-134.526c-35.676-35.686-84.067-55.722-134.524-55.722c-50.456,0-98.851,20.036-134.525,55.722
	c-35.675,35.677-55.721,84.067-55.721,134.526c0.036,50.44,20.09,98.813,55.759,134.481c35.675,35.677,84.049,55.731,134.49,55.767
	L140.416,130.6z M140.416-223.162c43.369,0,84.952,17.225,115.616,47.898c30.667,30.663,47.897,72.25,47.897,115.617
	c0,43.368-17.234,84.951-47.897,115.618c-30.664,30.663-72.247,47.889-115.616,47.889c-43.37,0-84.953-17.226-115.616-47.889
	C-5.865,25.305-23.093-16.279-23.093-59.646c0.036-43.358,17.271-84.927,47.925-115.582
	C55.496-205.883,97.066-223.126,140.416-223.162L140.416-223.162z"/>
<linearGradient id="SVGID_4_" gradientUnits="userSpaceOnUse" x1="86.8037" y1="-62.7363" x2="194.1621" y2="-62.7363">
	<stop  offset="0" style="stop-color:#60DAF3"/>
	<stop  offset="0.0055" style="stop-color:#5FD9F2"/>
	<stop  offset="0.1949" style="stop-color:#3DC6E1"/>
	<stop  offset="0.3881" style="stop-color:#22B7D3"/>
	<stop  offset="0.5845" style="stop-color:#0FACC9"/>
	<stop  offset="0.7859" style="stop-color:#04A6C3"/>
	<stop  offset="1" style="stop-color:#00A4C1"/>
</linearGradient>
<path fill="url(#SVGID_4_)" d="M100.171,9.723c9.194,8.344,20.806,13.546,33.161,14.844v12.301c0,5.39,4.369,9.758,9.758,9.758
	c5.39,0,9.759-4.369,9.759-9.758V23.493c11.817-2.973,22.337-9.732,29.945-19.249c7.529-9.293,11.558-20.932,11.361-32.894
	c0.072-12.22-4.745-23.958-13.366-32.615c-3.886-4.119-8.398-7.592-13.367-10.296c-6.016-3.474-13.366-7.35-22.194-11.496v-0.009
	c-7.136-2.694-13.812-6.48-19.786-11.225c-3.608-3.492-5.55-8.353-5.352-13.367c-0.098-5.515,2.308-10.779,6.554-14.307
	c4.449-3.951,10.23-6.052,16.178-5.882c6.607-0.036,12.953,2.561,17.646,7.217c5.819,5.568,14.566,6.756,21.655,2.945
	c2.131-1.218,3.655-3.269,4.208-5.649c0.555-2.381,0.098-4.889-1.263-6.921c-3.062-4.477-6.75-8.488-10.967-11.898
	c-6.214-4.655-13.546-7.61-21.254-8.559v-11.629c0-5.39-4.367-9.759-9.759-9.759c-5.39,0-9.758,4.37-9.758,9.759v11.764
	c-5.639,1.316-11.046,3.482-16.043,6.419c-4.483,2.569-8.502,5.864-11.899,9.758c-3.185,3.59-5.638,7.771-7.222,12.302
	c-1.889,4.583-2.883,9.48-2.937,14.44c-0.223,10.618,3.653,20.905,10.824,28.738c8.129,7.781,17.78,13.797,28.343,17.656
	c7.082,3.205,12.704,6.151,17.108,8.693l0.009-0.009c3.635,2.085,7.037,4.548,10.162,7.358c4.673,4.701,7.153,11.156,6.813,17.781
	c0.278,7.467-2.695,14.681-8.156,19.786c-5.443,5.217-12.776,8.022-20.323,7.753c-7.332,0.43-14.558-1.961-20.188-6.69
	c-3.644-3.893-6.544-8.424-8.55-13.365c-2.436-5.631-8.389-8.881-14.441-7.887c-3.581,0.922-6.617,3.286-8.389,6.527
	c-1.772,3.241-2.122,7.073-0.966,10.582c2.73,7.646,7.055,14.62,12.695,20.458L100.171,9.723z"/>
<linearGradient id="SVGID_5_" gradientUnits="userSpaceOnUse" x1="179.6621" y1="276.4717" x2="463.0811" y2="276.4717">
	<stop  offset="0" style="stop-color:#60DAF3"/>
	<stop  offset="0.0055" style="stop-color:#5FD9F2"/>
	<stop  offset="0.1949" style="stop-color:#3DC6E1"/>
	<stop  offset="0.3881" style="stop-color:#22B7D3"/>
	<stop  offset="0.5845" style="stop-color:#0FACC9"/>
	<stop  offset="0.7859" style="stop-color:#04A6C3"/>
	<stop  offset="1" style="stop-color:#00A4C1"/>
</linearGradient>
<path fill="url(#SVGID_5_)" d="M454.342,261.629c-88.454-28.551-184.608-20.851-267.4,21.389c-5.533,2.829-8.38,9.096-6.885,15.121
	c1.504,6.035,6.957,10.233,13.169,10.144c1.997-0.098,3.949-0.6,5.748-1.468c76.458-39.16,165.359-46.275,247.069-19.786
	c6.913,1.97,14.146-1.871,16.375-8.711c2.229-6.831-1.343-14.209-8.084-16.688H454.342z"/>
<g>
	<defs>
		<rect id="SVGID_6_" x="1095" y="10.646" width="595.276" height="595.275"/>
	</defs>
	<clipPath id="SVGID_7_">
		<use xlink:href="#SVGID_6_"  overflow="visible"/>
	</clipPath>
	<polygon clip-path="url(#SVGID_7_)" fill="#00A4C1" points="1167.346,30.754 1227.32,30.754 1227.32,48.328 1187.797,48.328 
		1187.797,59.618 1223.592,59.618 1223.592,75.915 1187.797,75.915 1187.797,87.738 1227.85,87.738 1227.85,105.314 
		1167.346,105.314 	"/>
	<g clip-path="url(#SVGID_7_)">
		<defs>
			<polygon id="SVGID_8_" points="1237.947,30.754 1257.711,30.754 1288.387,70.165 1288.387,30.754 1308.838,30.754 
				1308.838,105.314 1290.736,105.314 1258.881,64.413 1258.881,105.314 1237.947,105.314 			"/>
		</defs>
		<clipPath id="SVGID_9_">
			<use xlink:href="#SVGID_8_"  overflow="visible"/>
		</clipPath>
		
			<linearGradient id="SVGID_10_" gradientUnits="userSpaceOnUse" x1="53.6396" y1="641.9688" x2="54.6409" y2="641.9688" gradientTransform="matrix(-2.6913 -188.3894 -188.3894 2.6913 122362.6953 8777.1152)">
			<stop  offset="0" style="stop-color:#60DAF3"/>
			<stop  offset="0.0055" style="stop-color:#5FD9F2"/>
			<stop  offset="0.1949" style="stop-color:#3DC6E1"/>
			<stop  offset="0.3881" style="stop-color:#22B7D3"/>
			<stop  offset="0.5845" style="stop-color:#0FACC9"/>
			<stop  offset="0.7859" style="stop-color:#04A6C3"/>
			<stop  offset="1" style="stop-color:#00A4C1"/>
		</linearGradient>
		<polygon clip-path="url(#SVGID_9_)" fill="url(#SVGID_10_)" points="1237.961,106.327 1236.882,30.77 1308.824,29.742 
			1309.902,105.299 		"/>
	</g>
	<polygon clip-path="url(#SVGID_7_)" fill="#00A4C1" points="1322.09,30.754 1382.064,30.754 1382.064,48.328 1342.541,48.328 
		1342.541,59.618 1378.335,59.618 1378.335,75.915 1342.541,75.915 1342.541,87.738 1382.593,87.738 1382.593,105.314 
		1322.09,105.314 	"/>
	<g clip-path="url(#SVGID_7_)">
		<defs>
			<rect id="SVGID_11_" x="1095" y="10.646" width="595.276" height="595.275"/>
		</defs>
		<clipPath id="SVGID_12_">
			<use xlink:href="#SVGID_11_"  overflow="visible"/>
		</clipPath>
		<path clip-path="url(#SVGID_12_)" fill="#00A4C1" d="M1393.174,30.753h35.265c11.396,0,19.271,2.982,24.284,8.095
			c4.362,4.26,6.601,10.013,6.601,17.361v0.214c0,11.397-6.071,18.96-15.334,22.899l17.788,25.992h-23.859l-15.021-22.583h-0.217
			h-8.838v22.583h-20.668V30.753z M1427.476,66.543c7.034,0,11.076-3.409,11.076-8.842v-0.213c0-5.859-4.259-8.842-11.181-8.842
			h-13.529v17.897H1427.476z"/>
		<path clip-path="url(#SVGID_12_)" fill="#00A4C1" d="M1466.004,68.248v-0.215c0-21.728,17.043-38.77,40.156-38.77
			c13.097,0,22.368,4.046,30.252,10.863L1524.27,54.72c-5.334-4.475-10.659-7.032-18.005-7.032
			c-10.755,0-19.063,9.055-19.063,20.452v0.214c0,12.036,8.413,20.664,20.234,20.664c5.004,0,8.838-1.065,11.934-3.09v-9.053h-14.7
			V61.75h34.293v33.551c-7.875,6.499-18.847,11.505-32.377,11.505C1483.367,106.806,1466.004,90.828,1466.004,68.248"/>
		<polygon clip-path="url(#SVGID_12_)" fill="#00A4C1" points="1568.823,77.406 1540.488,30.754 1564.035,30.754 1579.369,57.914 
			1594.815,30.754 1617.93,30.754 1589.595,77.087 1589.595,105.314 1568.823,105.314 		"/>
		<polygon clip-path="url(#SVGID_12_)" fill="#60DAF3" points="1167.346,518.879 1226.999,518.879 1226.999,536.984 
			1188.014,536.984 1188.014,549.662 1223.27,549.662 1223.27,566.811 1188.014,566.811 1188.014,593.439 1167.346,593.439 		"/>
	</g>
	<g clip-path="url(#SVGID_7_)">
		<defs>
			<path id="SVGID_13_" d="M1237.947,87.583v473.155c0,23.326,13.314,34.086,34.511,34.086s34.935-10.547,34.935-34.619v-41.326
				h-20.98v41.967c0,10.438-5.43,15.336-13.739,15.336c-8.307,0-13.746-5.111-13.746-15.869V87.583H1237.947z"/>
		</defs>
		<clipPath id="SVGID_14_">
			<use xlink:href="#SVGID_13_"  overflow="visible"/>
		</clipPath>
		
			<linearGradient id="SVGID_15_" gradientUnits="userSpaceOnUse" x1="53.6416" y1="641.9531" x2="54.6416" y2="641.9531" gradientTransform="matrix(-2.6913 -188.3894 -188.3894 2.6913 122355.1953 8777.2402)">
			<stop  offset="0" style="stop-color:#60DAF3"/>
			<stop  offset="0.0055" style="stop-color:#5FD9F2"/>
			<stop  offset="0.1949" style="stop-color:#3DC6E1"/>
			<stop  offset="0.3881" style="stop-color:#22B7D3"/>
			<stop  offset="0.5845" style="stop-color:#0FACC9"/>
			<stop  offset="0.7859" style="stop-color:#04A6C3"/>
			<stop  offset="1" style="stop-color:#00A4C1"/>
		</linearGradient>
		<polygon clip-path="url(#SVGID_14_)" fill="url(#SVGID_15_)" points="1237.961,595.814 1230.702,87.687 1307.378,86.591 
			1314.637,594.721 		"/>
	</g>
	<g clip-path="url(#SVGID_7_)">
		<defs>
			<rect id="SVGID_16_" x="1095" y="10.646" width="595.276" height="595.275"/>
		</defs>
		<clipPath id="SVGID_17_">
			<use xlink:href="#SVGID_16_"  overflow="visible"/>
		</clipPath>
		<polygon clip-path="url(#SVGID_17_)" fill="#60DAF3" points="1337.904,536.986 1315.527,536.986 1315.527,518.879 
			1380.931,518.879 1380.931,536.986 1358.563,536.986 1358.563,593.439 1337.904,593.439 		"/>
		<path clip-path="url(#SVGID_17_)" fill="#60DAF3" d="M1389.066,560.738v-41.859h20.979v41.432c0,10.76,5.438,15.871,13.747,15.871
			c8.308,0,13.738-4.898,13.738-15.338v-41.965h20.979v41.326c0,24.072-13.738,34.619-34.935,34.619
			C1402.379,594.824,1389.066,584.064,1389.066,560.738"/>
		<path clip-path="url(#SVGID_17_)" fill="#60DAF3" d="M1469.555,518.879h35.264c11.396,0,19.271,2.98,24.285,8.094
			c4.362,4.26,6.6,10.012,6.6,17.361v0.215c0,11.395-6.071,18.959-15.334,22.898l17.789,25.992h-23.86l-15.021-22.584h-0.217h-8.838
			v22.584h-20.667V518.879z M1503.856,554.668c7.033,0,11.075-3.408,11.075-8.844v-0.211c0-5.859-4.259-8.842-11.179-8.842h-13.531
			v17.896H1503.856z"/>
	</g>
	<g clip-path="url(#SVGID_7_)">
		<defs>
			<polygon id="SVGID_18_" points="1293.158,273.494 1358.986,311.682 1359.186,336.984 1293.158,299.028 1293.158,324.266 
				1359.053,362.551 1359.02,387.814 1293.158,349.242 1293.158,374.941 1380.945,426.141 1380.945,299.129 1293.158,247.173 			"/>
		</defs>
		<clipPath id="SVGID_19_">
			<use xlink:href="#SVGID_18_"  overflow="visible"/>
		</clipPath>
		
			<linearGradient id="SVGID_20_" gradientUnits="userSpaceOnUse" x1="55.0273" y1="648.0098" x2="56.0273" y2="648.0098" gradientTransform="matrix(621.6849 180.3155 180.3155 -621.6849 -149863.2969 393230.5938)">
			<stop  offset="0" style="stop-color:#60DAF3"/>
			<stop  offset="0.0055" style="stop-color:#5FD9F2"/>
			<stop  offset="0.1949" style="stop-color:#3DC6E1"/>
			<stop  offset="0.3881" style="stop-color:#22B7D3"/>
			<stop  offset="0.5845" style="stop-color:#0FACC9"/>
			<stop  offset="0.7859" style="stop-color:#04A6C3"/>
			<stop  offset="1" style="stop-color:#00A4C1"/>
		</linearGradient>
		<polygon clip-path="url(#SVGID_19_)" fill="url(#SVGID_20_)" points="1299.971,223.687 1428.826,261.061 1374.134,449.627 
			1245.277,412.254 		"/>
	</g>
	<g clip-path="url(#SVGID_7_)">
		<defs>
			<rect id="SVGID_21_" x="1095" y="10.646" width="595.276" height="595.275"/>
		</defs>
		<clipPath id="SVGID_22_">
			<use xlink:href="#SVGID_21_"  overflow="visible"/>
		</clipPath>
		<g opacity="0.78" clip-path="url(#SVGID_22_)">
			<g>
				<defs>
					<rect id="SVGID_23_" x="1380.955" y="248.889" width="87.748" height="177.251"/>
				</defs>
				<clipPath id="SVGID_24_">
					<use xlink:href="#SVGID_23_"  overflow="visible"/>
				</clipPath>
				<g clip-path="url(#SVGID_24_)">
					<defs>
						<polygon id="SVGID_25_" points="1380.955,299.124 1468.703,248.889 1468.703,274.179 1402.985,312.406 1402.985,337.775 
							1468.703,299.432 1468.703,325.123 1402.985,362.947 1402.985,413.686 1380.955,426.141 						"/>
					</defs>
					<clipPath id="SVGID_26_">
						<use xlink:href="#SVGID_25_"  overflow="visible"/>
					</clipPath>
					
						<linearGradient id="SVGID_27_" gradientUnits="userSpaceOnUse" x1="55.0273" y1="648.0107" x2="56.0273" y2="648.0107" gradientTransform="matrix(621.6849 180.3155 180.3155 -621.6849 -149856.7969 393207.8438)">
						<stop  offset="0" style="stop-color:#60DAF3"/>
						<stop  offset="0.0055" style="stop-color:#5FD9F2"/>
						<stop  offset="0.1949" style="stop-color:#3DC6E1"/>
						<stop  offset="0.3881" style="stop-color:#22B7D3"/>
						<stop  offset="0.5845" style="stop-color:#0FACC9"/>
						<stop  offset="0.7859" style="stop-color:#04A6C3"/>
						<stop  offset="1" style="stop-color:#00A4C1"/>
					</linearGradient>
					<polygon clip-path="url(#SVGID_26_)" fill="url(#SVGID_27_)" points="1387.764,225.414 1516.124,262.644 1461.894,449.615 
						1333.533,412.387 					"/>
				</g>
			</g>
		</g>
	</g>
	<g clip-path="url(#SVGID_7_)">
		<defs>
			<polygon id="SVGID_28_" points="1315.052,235.458 1380.945,274.317 1446.886,235.476 1380.945,197.944 			"/>
		</defs>
		<clipPath id="SVGID_29_">
			<use xlink:href="#SVGID_28_"  overflow="visible"/>
		</clipPath>
		
			<linearGradient id="SVGID_30_" gradientUnits="userSpaceOnUse" x1="55.0273" y1="648.0098" x2="56.0273" y2="648.0098" gradientTransform="matrix(621.6849 180.3155 180.3155 -621.6849 -149832.7969 393126.0938)">
			<stop  offset="0" style="stop-color:#60DAF3"/>
			<stop  offset="0.0055" style="stop-color:#5FD9F2"/>
			<stop  offset="0.1949" style="stop-color:#3DC6E1"/>
			<stop  offset="0.3881" style="stop-color:#22B7D3"/>
			<stop  offset="0.5845" style="stop-color:#0FACC9"/>
			<stop  offset="0.7859" style="stop-color:#04A6C3"/>
			<stop  offset="1" style="stop-color:#00A4C1"/>
		</linearGradient>
		<polygon clip-path="url(#SVGID_29_)" fill="url(#SVGID_30_)" points="1325.281,162.674 1467.318,203.871 1436.656,309.588 
			1294.619,268.391 		"/>
	</g>
</g>
</svg>
