<?xml version="1.0" encoding="utf-8"?>
<!-- Generator: Adobe Illustrator 16.0.3, SVG Export Plug-In . SVG Version: 6.00 Build 0)  -->
<!DOCTYPE svg PUBLIC "-//W3C//DTD SVG 1.1//EN" "http://www.w3.org/Graphics/SVG/1.1/DTD/svg11.dtd">
<svg version="1.1" id="Capa_1" xmlns="http://www.w3.org/2000/svg" xmlns:xlink="http://www.w3.org/1999/xlink" x="0px" y="0px"
	 width="1080px" height="1080px" viewBox="-296.495 -345.992 1080 1080" enable-background="new -296.495 -345.992 1080 1080"
	 xml:space="preserve">
<linearGradient id="SVGID_1_" gradientUnits="userSpaceOnUse" x1="-184.5786" y1="193.3853" x2="670.6025" y2="193.3853">
	<stop  offset="0" style="stop-color:#60DAF3"/>
	<stop  offset="0.0055" style="stop-color:#5FD9F2"/>
	<stop  offset="0.1949" style="stop-color:#3DC6E1"/>
	<stop  offset="0.3881" style="stop-color:#22B7D3"/>
	<stop  offset="0.5845" style="stop-color:#0FACC9"/>
	<stop  offset="0.7859" style="stop-color:#04A6C3"/>
	<stop  offset="1" style="stop-color:#00A4C1"/>
</linearGradient>
<path fill="url(#SVGID_1_)" d="M241.432-347.688c-6.486,0.818-11.267,6.451-11.012,12.978v146.618
	c-0.045,3.369,1.262,6.615,3.625,9.01c2.358,2.398,5.587,3.748,8.956,3.748c3.369,0,6.6-1.35,8.959-3.748
	c2.362-2.395,3.669-5.641,3.625-9.01V-334.71c0.138-3.694-1.353-7.264-4.073-9.764C248.783-346.976,245.099-348.151,241.432-347.688
	L241.432-347.688z M49.995-211.677c-4.565,0.018-8.767,2.509-10.97,6.513c-2.212,3.998-2.071,8.878,0.36,12.75l34.979,60.927
	c3.475,6.083,11.213,8.196,17.297,4.722c2.92-1.666,5.052-4.43,5.938-7.667c0.887-3.249,0.448-6.714-1.22-9.627l-34.991-60.93
	c-2.227-4.205-6.643-6.792-11.397-6.688H49.995z M434.431-211.677c-4.192,0.448-7.879,2.949-9.827,6.688l-34.992,60.93
	c-3.465,6.08-1.357,13.819,4.723,17.294c6.082,3.474,13.817,1.361,17.295-4.722l34.979-60.927c2.643-4.109,2.652-9.381,0.037-13.504
	C444.04-210.051,439.276-212.29,434.431-211.677L434.431-211.677z M242.995-78.806c-94.789,0-174.871,62.911-201.265,149.759
	c-1.229,3.247-1.063,6.854,0.458,9.97c1.515,3.122,4.252,5.476,7.57,6.5c3.309,1.037,6.898,0.649,9.915-1.051
	c3.027-1.704,5.211-4.581,6.039-7.94C88.988,1.836,159.356-53.65,242.995-53.65S396.999,1.836,420.278,78.432
	c0.827,3.36,3.012,6.236,6.039,7.94c3.017,1.701,6.604,2.088,9.914,1.051c3.315-1.025,6.054-3.378,7.571-6.5
	c1.518-3.116,1.685-6.723,0.456-9.97C417.865-15.895,337.783-78.806,242.995-78.806L242.995-78.806z M-168.176-78.421
	c-5.432,0.695-9.801,4.826-10.784,10.213c-0.992,5.389,1.624,10.802,6.456,13.374l126.186,73.51
	c2.876,2.125,6.519,2.915,10.02,2.193c3.501-0.727,6.52-2.903,8.319-5.993c1.797-3.086,2.19-6.798,1.094-10.194
	c-1.094-3.396-3.588-6.167-6.852-7.625L-159.92-76.455C-162.358-78.042-165.283-78.736-168.176-78.421L-168.176-78.421z
	 M651.425-78.421c-1.966,0.22-3.842,0.896-5.501,1.966L519.741-2.942c-3.266,1.458-5.757,4.229-6.854,7.625
	s-0.702,7.108,1.097,10.194c1.799,3.09,4.815,5.266,8.316,5.993c3.502,0.722,7.145-0.069,10.02-2.193l126.185-73.51
	c5.221-2.844,7.749-8.959,6.039-14.664C662.83-75.199,657.356-78.919,651.425-78.421z M-78.53,147.596
	c-4.842,0.946-8.686,4.643-9.828,9.44l-95.919,401.334c-0.826,3.712,0.06,7.606,2.429,10.583c2.368,2.972,5.959,4.729,9.758,4.753
	h830.205c3.798-0.024,7.388-1.781,9.756-4.753c2.369-2.977,3.255-6.871,2.43-10.583L573.996,157.04
	c-1.44-5.567-6.45-9.444-12.19-9.444H-75.782C-76.696,147.5-77.616,147.5-78.53,147.596L-78.53,147.596z M-65.955,172.761h189.472
	l-7.466,94.728H20.917l5.896-36.158c0.851-4.1-0.384-8.336-3.306-11.336c-2.915-2.994-7.125-4.343-11.24-3.607
	c-5.495,0.818-9.8,5.125-10.609,10.615l-6.688,40.487h-83.723L-65.955,172.761z M148.277,172.761h87.271v94.728h-94.735
	L148.277,172.761z M260.703,172.761h77.046l7.469,94.728h-84.515V172.761z M362.512,172.761H551.59l54.24,224.844h-93.549
	l-27.915-170.596c-0.472-3.438-2.341-6.524-5.175-8.536c-2.825-2.01-6.362-2.755-9.758-2.079c-3.371,0.571-6.351,2.482-8.284,5.298
	c-1.93,2.816-2.624,6.3-1.938,9.645l5.895,36.159h-95.129L362.512,172.761z M-94.639,292.653h85.688l-41.671,255.889h-105.343
	L-94.639,292.653z M16.599,292.653h97.493l-8.259,104.949H-0.301L16.599,292.653z M138.854,292.653h96.702v104.949H130.595
	L138.854,292.653z M260.709,292.653h86.481l8.255,104.949h-94.736V292.653z M371.949,292.653h97.099l17.294,104.949H380.208
	L371.949,292.653z M-4.628,422.759h108.493l-5.115,64.857c-0.868,3.582-0.12,7.362,2.038,10.356
	c2.167,2.982,5.527,4.867,9.193,5.156c3.676,0.289,7.292-1.042,9.897-3.648c2.609-2.605,3.931-6.22,3.643-9.896l5.105-66.826H235.55
	v125.786H-25.078L-4.628,422.759z M260.694,422.759h96.703l5.106,66.826c-0.292,3.676,1.033,7.29,3.643,9.896
	c2.606,2.606,6.221,3.938,9.896,3.648c3.667-0.289,7.026-2.174,9.193-5.156c2.161-2.994,2.906-6.774,2.038-10.356l-5.114-64.857
	h108.492l20.442,125.786H260.688L260.694,422.759z M516.2,422.759h95.516l30.273,125.786H536.647L516.2,422.759z M174.621,616.953
	c-6.486,0.805-11.268,6.438-11.013,12.967v79.41h-53.454c-0.922-0.104-1.842-0.104-2.756,0c-3.333,0.36-6.395,2.035-8.493,4.649
	c-2.107,2.624-3.081,5.966-2.711,9.302c0.36,3.334,2.035,6.388,4.658,8.49c2.615,2.1,5.958,3.073,9.302,2.712h266.107
	c3.371,0.045,6.618-1.254,9.013-3.624c2.396-2.36,3.745-5.588,3.745-8.957c0-3.371-1.35-6.591-3.745-8.959
	c-2.395-2.361-5.642-3.667-9.013-3.616h-53.845V629.92c0.12-3.615-1.308-7.117-3.949-9.599c-2.634-2.482-6.213-3.712-9.81-3.368
	c-6.643,0.612-11.643,6.308-11.406,12.967v79.407H188.764V629.92c0.142-3.696-1.349-7.266-4.069-9.768
	c-2.729-2.5-6.416-3.666-10.083-3.199H174.621z"/>
</svg>
