<?xml version="1.0" encoding="utf-8"?>
<!-- Generator: Adobe Illustrator 16.0.3, SVG Export Plug-In . SVG Version: 6.00 Build 0)  -->
<!DOCTYPE svg PUBLIC "-//W3C//DTD SVG 1.1//EN" "http://www.w3.org/Graphics/SVG/1.1/DTD/svg11.dtd">
<svg version="1.1" id="Capa_1" xmlns="http://www.w3.org/2000/svg" xmlns:xlink="http://www.w3.org/1999/xlink" x="0px" y="0px"
	 width="1200px" height="1200px" viewBox="-353 -272 1200 1200" enable-background="new -353 -272 1200 1200" xml:space="preserve">
<linearGradient id="SVGID_1_" gradientUnits="userSpaceOnUse" x1="699.7773" y1="793.4102" x2="769.3506" y2="793.4102">
	<stop  offset="0" style="stop-color:#60DAF3"/>
	<stop  offset="0.0055" style="stop-color:#5FD9F2"/>
	<stop  offset="0.1949" style="stop-color:#3DC6E1"/>
	<stop  offset="0.3881" style="stop-color:#22B7D3"/>
	<stop  offset="0.5845" style="stop-color:#0FACC9"/>
	<stop  offset="0.7859" style="stop-color:#04A6C3"/>
	<stop  offset="1" style="stop-color:#00A4C1"/>
</linearGradient>
<path fill="url(#SVGID_1_)" d="M699.777,779.605h69.573v27.61h-69.573V779.605z"/>
<linearGradient id="SVGID_2_" gradientUnits="userSpaceOnUse" x1="168.7324" y1="793.4102" x2="238.1675" y2="793.4102">
	<stop  offset="0" style="stop-color:#60DAF3"/>
	<stop  offset="0.0055" style="stop-color:#5FD9F2"/>
	<stop  offset="0.1949" style="stop-color:#3DC6E1"/>
	<stop  offset="0.3881" style="stop-color:#22B7D3"/>
	<stop  offset="0.5845" style="stop-color:#0FACC9"/>
	<stop  offset="0.7859" style="stop-color:#04A6C3"/>
	<stop  offset="1" style="stop-color:#00A4C1"/>
</linearGradient>
<path fill="url(#SVGID_2_)" d="M168.732,779.605h69.435v27.61h-69.435V779.605z"/>
<linearGradient id="SVGID_3_" gradientUnits="userSpaceOnUse" x1="331.834" y1="218.5835" x2="603.9609" y2="218.5835">
	<stop  offset="0" style="stop-color:#60DAF3"/>
	<stop  offset="0.0055" style="stop-color:#5FD9F2"/>
	<stop  offset="0.1949" style="stop-color:#3DC6E1"/>
	<stop  offset="0.3881" style="stop-color:#22B7D3"/>
	<stop  offset="0.5845" style="stop-color:#0FACC9"/>
	<stop  offset="0.7859" style="stop-color:#04A6C3"/>
	<stop  offset="1" style="stop-color:#00A4C1"/>
</linearGradient>
<path fill="url(#SVGID_3_)" d="M531.361,309.142H398.149l-4.002-8.007l-60.464-129.21c-2.346-5.108-2.485-11.043-0.275-16.289
	c2.208-5.246,6.626-9.249,12.01-11.044l34.786-11.457c10.216-3.313,20.983-5.108,31.75-5.108c19.879,0,39.204,5.799,55.77,16.565
	c17.531,11.458,39.342,15.047,59.635,9.663l51.766-13.666c4.28-1.105,8.697-0.829,12.701,0.966c3.727,1.657,6.901,4.279,9.11,7.731
	c3.451,5.521,4.004,12.423,1.381,18.497l-58.53,133.212l-4.003,7.868L531.361,309.142z M415.403,281.53h106.983l48.317-109.879
	l-36.167,9.524c-27.885,7.316-57.564,2.485-81.722-13.252c-12.148-7.869-26.229-12.147-40.724-12.147
	c-7.868,0-15.736,1.242-23.19,3.727l-26.505,8.697L415.403,281.53z"/>
<linearGradient id="SVGID_4_" gradientUnits="userSpaceOnUse" x1="477.3428" y1="336.0322" x2="550.0215" y2="336.0322">
	<stop  offset="0" style="stop-color:#60DAF3"/>
	<stop  offset="0.0055" style="stop-color:#5FD9F2"/>
	<stop  offset="0.1949" style="stop-color:#3DC6E1"/>
	<stop  offset="0.3881" style="stop-color:#22B7D3"/>
	<stop  offset="0.5845" style="stop-color:#0FACC9"/>
	<stop  offset="0.7859" style="stop-color:#04A6C3"/>
	<stop  offset="1" style="stop-color:#00A4C1"/>
</linearGradient>
<path fill="url(#SVGID_4_)" d="M477.343,302.301l23.675-14.209l49.004,81.672l-23.674,14.209L477.343,302.301z"/>
<linearGradient id="SVGID_5_" gradientUnits="userSpaceOnUse" x1="387.9102" y1="336.1689" x2="460.5898" y2="336.1689">
	<stop  offset="0" style="stop-color:#60DAF3"/>
	<stop  offset="0.0055" style="stop-color:#5FD9F2"/>
	<stop  offset="0.1949" style="stop-color:#3DC6E1"/>
	<stop  offset="0.3881" style="stop-color:#22B7D3"/>
	<stop  offset="0.5845" style="stop-color:#0FACC9"/>
	<stop  offset="0.7859" style="stop-color:#04A6C3"/>
	<stop  offset="1" style="stop-color:#00A4C1"/>
</linearGradient>
<path fill="url(#SVGID_5_)" d="M387.91,369.899l49.005-81.669l23.675,14.208l-49.005,81.67L387.91,369.899z"/>
<linearGradient id="SVGID_6_" gradientUnits="userSpaceOnUse" x1="455.1543" y1="784.082" x2="482.7656" y2="784.082">
	<stop  offset="0" style="stop-color:#60DAF3"/>
	<stop  offset="0.0055" style="stop-color:#5FD9F2"/>
	<stop  offset="0.1949" style="stop-color:#3DC6E1"/>
	<stop  offset="0.3881" style="stop-color:#22B7D3"/>
	<stop  offset="0.5845" style="stop-color:#0FACC9"/>
	<stop  offset="0.7859" style="stop-color:#04A6C3"/>
	<stop  offset="1" style="stop-color:#00A4C1"/>
</linearGradient>
<path fill="url(#SVGID_6_)" d="M455.154,757.922h27.611v52.321h-27.611V757.922z"/>
<linearGradient id="SVGID_7_" gradientUnits="userSpaceOnUse" x1="455.1543" y1="488.8262" x2="482.7656" y2="488.8262">
	<stop  offset="0" style="stop-color:#60DAF3"/>
	<stop  offset="0.0055" style="stop-color:#5FD9F2"/>
	<stop  offset="0.1949" style="stop-color:#3DC6E1"/>
	<stop  offset="0.3881" style="stop-color:#22B7D3"/>
	<stop  offset="0.5845" style="stop-color:#0FACC9"/>
	<stop  offset="0.7859" style="stop-color:#04A6C3"/>
	<stop  offset="1" style="stop-color:#00A4C1"/>
</linearGradient>
<path fill="url(#SVGID_7_)" d="M455.154,463.219h27.611v51.215h-27.611V463.219z"/>
<linearGradient id="SVGID_8_" gradientUnits="userSpaceOnUse" x1="370.1348" y1="636.3232" x2="567.8066" y2="636.3232">
	<stop  offset="0" style="stop-color:#60DAF3"/>
	<stop  offset="0.0055" style="stop-color:#5FD9F2"/>
	<stop  offset="0.1949" style="stop-color:#3DC6E1"/>
	<stop  offset="0.3881" style="stop-color:#22B7D3"/>
	<stop  offset="0.5845" style="stop-color:#0FACC9"/>
	<stop  offset="0.7859" style="stop-color:#04A6C3"/>
	<stop  offset="1" style="stop-color:#00A4C1"/>
</linearGradient>
<path fill="url(#SVGID_8_)" d="M490.922,771.882h-43.897c-39.757,0-71.921-31.335-71.921-69.991h27.611
	c0,23.329,19.878,42.38,44.313,42.38h43.896c27.196,0,49.282-21.121,49.282-47.069c0-12.425-5.107-24.296-14.218-33.131
	c-9.387-8.974-21.812-13.942-35.066-13.942h-43.897c-42.379,0-76.89-33.545-76.89-74.682c0-20.017,8.007-38.931,22.639-53.009
	c14.494-13.942,33.82-21.673,54.251-21.673h43.897c39.757,0,71.921,31.336,71.921,69.988h-27.608
	c0-23.329-19.879-42.377-44.314-42.377h-43.897c-13.252,0-25.677,4.97-35.064,13.942c-9.247,8.835-14.217,20.704-14.217,33.131
	c0,25.949,22.087,47.069,49.278,47.069h43.898c20.433,0,39.756,7.73,54.251,21.674c14.632,14.079,22.638,32.989,22.638,53.009
	c0,41.137-34.51,74.681-76.889,74.681H490.922z"/>
<linearGradient id="SVGID_9_" gradientUnits="userSpaceOnUse" x1="-352.3931" y1="267.8022" x2="845.7959" y2="267.8022">
	<stop  offset="0" style="stop-color:#60DAF3"/>
	<stop  offset="0.0055" style="stop-color:#5FD9F2"/>
	<stop  offset="0.1949" style="stop-color:#3DC6E1"/>
	<stop  offset="0.3881" style="stop-color:#22B7D3"/>
	<stop  offset="0.5845" style="stop-color:#0FACC9"/>
	<stop  offset="0.7859" style="stop-color:#04A6C3"/>
	<stop  offset="1" style="stop-color:#00A4C1"/>
</linearGradient>
<path fill="url(#SVGID_9_)" d="M181.276,807.068h-401.703V266.354h-116.647c-6.35,0-12.148-4.002-14.356-9.939
	c-2.209-5.936-0.552-12.699,4.279-16.979l593.872-510.9l593.721,510.9c4.833,4.28,6.627,11.043,4.418,16.979
	c-2.209,5.937-8.008,9.939-14.356,9.939H713.857v190.5l-25.263-37.686c-37.272-55.632-93.593-94.698-158.473-110.021H407.815
	c-45.141,10.768-86.827,33.269-120.65,65.294c-47.211,44.727-76.2,104.913-81.582,169.655L181.276,807.068z M-192.813,779.459
	H156.16l21.949-237.71c6.074-71.369,37.962-137.908,90.143-187.324c37.824-35.895,84.62-61.019,135.285-72.614l10.491-2.484
	l1.104,2.208h107.671l1.104-2.071l10.63,2.347c59.082,13.528,111.815,44.865,151.848,89.455V238.744H797.51L246.724-235.028
	l-550.659,473.772h111.124L-192.813,779.459z"/>
<linearGradient id="SVGID_10_" gradientUnits="userSpaceOnUse" x1="-15.0576" y1="65.5117" x2="35.7046" y2="65.5117">
	<stop  offset="0" style="stop-color:#60DAF3"/>
	<stop  offset="0.0055" style="stop-color:#5FD9F2"/>
	<stop  offset="0.1949" style="stop-color:#3DC6E1"/>
	<stop  offset="0.3881" style="stop-color:#22B7D3"/>
	<stop  offset="0.5845" style="stop-color:#0FACC9"/>
	<stop  offset="0.7859" style="stop-color:#04A6C3"/>
	<stop  offset="1" style="stop-color:#00A4C1"/>
</linearGradient>
<path fill="url(#SVGID_10_)" d="M-15.058,69.138L17.701,40.96l18.004,20.923L2.947,90.064L-15.058,69.138z"/>
<linearGradient id="SVGID_11_" gradientUnits="userSpaceOnUse" x1="-244.2842" y1="457.3369" x2="168.7515" y2="457.3369">
	<stop  offset="0" style="stop-color:#60DAF3"/>
	<stop  offset="0.0055" style="stop-color:#5FD9F2"/>
	<stop  offset="0.1949" style="stop-color:#3DC6E1"/>
	<stop  offset="0.3881" style="stop-color:#22B7D3"/>
	<stop  offset="0.5845" style="stop-color:#0FACC9"/>
	<stop  offset="0.7859" style="stop-color:#04A6C3"/>
	<stop  offset="1" style="stop-color:#00A4C1"/>
</linearGradient>
<path fill="url(#SVGID_11_)" d="M168.732,807.068h-389.134V266.354h-23.882l184.426-158.749l17.946,20.982l-150.881,129.898v520.973
	h361.545L168.732,807.068z"/>
<linearGradient id="SVGID_12_" gradientUnits="userSpaceOnUse" x1="57.7451" y1="127.7539" x2="737.7363" y2="127.7539">
	<stop  offset="0" style="stop-color:#60DAF3"/>
	<stop  offset="0.0055" style="stop-color:#5FD9F2"/>
	<stop  offset="0.1949" style="stop-color:#3DC6E1"/>
	<stop  offset="0.3881" style="stop-color:#22B7D3"/>
	<stop  offset="0.5845" style="stop-color:#0FACC9"/>
	<stop  offset="0.7859" style="stop-color:#04A6C3"/>
	<stop  offset="1" style="stop-color:#00A4C1"/>
</linearGradient>
<path fill="url(#SVGID_12_)" d="M713.863,411.574H686.25V258.486l-108.776-93.593l-330.75-284.657L75.829,27.392L57.745,6.41
	l188.979-162.477l491.012,422.402h-23.881L713.863,411.574z"/>
<linearGradient id="SVGID_13_" gradientUnits="userSpaceOnUse" x1="90.7178" y1="602.0771" x2="847.0566" y2="602.0771">
	<stop  offset="0" style="stop-color:#60DAF3"/>
	<stop  offset="0.0055" style="stop-color:#5FD9F2"/>
	<stop  offset="0.1949" style="stop-color:#3DC6E1"/>
	<stop  offset="0.3881" style="stop-color:#22B7D3"/>
	<stop  offset="0.5845" style="stop-color:#0FACC9"/>
	<stop  offset="0.7859" style="stop-color:#04A6C3"/>
	<stop  offset="1" style="stop-color:#00A4C1"/>
</linearGradient>
<path fill="url(#SVGID_13_)" d="M774.594,924.823H163.331c-40.032,0-72.613-32.578-72.613-72.61
	c0-19.326,7.592-37.688,21.259-51.354c12.01-12.011,27.471-19.325,44.036-20.981l21.949-238.125
	c6.075-71.367,37.961-137.906,90.143-187.325c37.823-35.891,84.62-61.015,135.282-72.611l10.492-2.485l1.104,2.209h107.674
	l1.104-2.071l10.629,2.347c72.61,16.703,135.417,60.049,177.11,122.03c27.471,40.999,44.174,88.762,48.315,138.044l21.948,237.987
	c36.581,3.726,65.294,34.651,65.294,72.199c0,19.463-7.593,37.685-21.259,51.352c-13.528,13.804-31.889,21.396-51.213,21.396
	H774.594z M163.331,807.211c-12.01,0-23.329,4.694-31.753,13.253c-8.42,8.559-13.251,19.738-13.251,31.749
	c0,24.848,20.157,45.001,45.004,45.001h611.263c12.01,0,23.329-4.692,31.751-13.251c8.558-8.558,13.252-19.74,13.252-31.89
	c0-24.849-20.156-45.002-45.003-45.002h-17.945L732.353,544.25c-3.727-44.725-18.912-87.933-43.76-125.066
	c-37.271-55.631-93.593-94.7-158.471-110.161H407.815c-45.143,10.768-86.829,33.271-120.65,65.294
	c-47.211,44.727-76.202,104.911-81.583,169.656l-23.191,250.684l-1.656,12.147L163.331,807.211z"/>
<linearGradient id="SVGID_14_" gradientUnits="userSpaceOnUse" x1="64.4922" y1="578.8789" x2="312.2773" y2="578.8789">
	<stop  offset="0" style="stop-color:#60DAF3"/>
	<stop  offset="0.0055" style="stop-color:#5FD9F2"/>
	<stop  offset="0.1949" style="stop-color:#3DC6E1"/>
	<stop  offset="0.3881" style="stop-color:#22B7D3"/>
	<stop  offset="0.5845" style="stop-color:#0FACC9"/>
	<stop  offset="0.7859" style="stop-color:#04A6C3"/>
	<stop  offset="1" style="stop-color:#00A4C1"/>
</linearGradient>
<path fill="url(#SVGID_14_)" d="M181.276,807.068H64.492V370.706c0-11.044,8.973-20.017,20.016-20.017h227.769l-25.124,23.882
	c-47.209,44.729-76.2,104.913-81.582,169.655L181.276,807.068z M92.103,779.459h64.05l21.948-237.71
	c5.107-60.463,28.854-117.475,67.642-163.443H92.103V779.459z"/>
<linearGradient id="SVGID_15_" gradientUnits="userSpaceOnUse" x1="512.46" y1="-12.6255" x2="665.8252" y2="-12.6255">
	<stop  offset="0" style="stop-color:#60DAF3"/>
	<stop  offset="0.0055" style="stop-color:#5FD9F2"/>
	<stop  offset="0.1949" style="stop-color:#3DC6E1"/>
	<stop  offset="0.3881" style="stop-color:#22B7D3"/>
	<stop  offset="0.5845" style="stop-color:#0FACC9"/>
	<stop  offset="0.7859" style="stop-color:#04A6C3"/>
	<stop  offset="1" style="stop-color:#00A4C1"/>
</linearGradient>
<path fill="url(#SVGID_15_)" d="M665.825,125.556L512.46-6.414v-130.45c0-7.73,6.212-13.943,13.941-13.943h125.482
	c7.729,0,13.941,6.212,13.941,13.943V125.556z M540.07-19.114l98.149,84.483v-188.567H540.07V-19.114z"/>
<g>
	<defs>
		<rect id="SVGID_16_" x="1173" y="138" width="595.276" height="595.275"/>
	</defs>
	<clipPath id="SVGID_17_">
		<use xlink:href="#SVGID_16_"  overflow="visible"/>
	</clipPath>
	<polygon clip-path="url(#SVGID_17_)" fill="#00A4C1" points="1245.346,158.107 1305.32,158.107 1305.32,175.682 1265.797,175.682 
		1265.797,186.972 1301.592,186.972 1301.592,203.269 1265.797,203.269 1265.797,215.092 1305.85,215.092 1305.85,232.667 
		1245.346,232.667 	"/>
	<g clip-path="url(#SVGID_17_)">
		<defs>
			<polygon id="SVGID_18_" points="1315.947,158.108 1335.711,158.108 1366.387,197.518 1366.387,158.108 1386.838,158.108 
				1386.838,232.668 1368.736,232.668 1336.881,191.766 1336.881,232.668 1315.947,232.668 			"/>
		</defs>
		<clipPath id="SVGID_19_">
			<use xlink:href="#SVGID_18_"  overflow="visible"/>
		</clipPath>
		
			<linearGradient id="SVGID_20_" gradientUnits="userSpaceOnUse" x1="52.96" y1="641.5645" x2="53.96" y2="641.5645" gradientTransform="matrix(-2.6913 -188.3894 -188.3894 2.6913 122362.6953 8777.1152)">
			<stop  offset="0" style="stop-color:#60DAF3"/>
			<stop  offset="0.0055" style="stop-color:#5FD9F2"/>
			<stop  offset="0.1949" style="stop-color:#3DC6E1"/>
			<stop  offset="0.3881" style="stop-color:#22B7D3"/>
			<stop  offset="0.5845" style="stop-color:#0FACC9"/>
			<stop  offset="0.7859" style="stop-color:#04A6C3"/>
			<stop  offset="1" style="stop-color:#00A4C1"/>
		</linearGradient>
		<polygon clip-path="url(#SVGID_19_)" fill="url(#SVGID_20_)" points="1315.961,233.681 1314.882,158.123 1386.824,157.095 
			1387.902,232.653 		"/>
	</g>
	<polygon clip-path="url(#SVGID_17_)" fill="#00A4C1" points="1400.09,158.107 1460.064,158.107 1460.064,175.682 1420.541,175.682 
		1420.541,186.972 1456.335,186.972 1456.335,203.269 1420.541,203.269 1420.541,215.092 1460.593,215.092 1460.593,232.667 
		1400.09,232.667 	"/>
	<g clip-path="url(#SVGID_17_)">
		<defs>
			<rect id="SVGID_21_" x="1173" y="138" width="595.276" height="595.275"/>
		</defs>
		<clipPath id="SVGID_22_">
			<use xlink:href="#SVGID_21_"  overflow="visible"/>
		</clipPath>
		<path clip-path="url(#SVGID_22_)" fill="#00A4C1" d="M1471.174,158.107h35.265c11.396,0,19.271,2.982,24.284,8.095
			c4.362,4.26,6.601,10.013,6.601,17.361v0.214c0,11.397-6.071,18.96-15.334,22.899l17.788,25.992h-23.859l-15.021-22.583h-0.217
			h-8.838v22.583h-20.668V158.107z M1505.476,193.897c7.034,0,11.076-3.409,11.076-8.842v-0.213c0-5.859-4.259-8.842-11.181-8.842
			h-13.529v17.897H1505.476z"/>
		<path clip-path="url(#SVGID_22_)" fill="#00A4C1" d="M1544.004,195.601v-0.215c0-21.728,17.043-38.77,40.156-38.77
			c13.097,0,22.368,4.046,30.252,10.863l-12.143,14.594c-5.334-4.475-10.659-7.032-18.005-7.032
			c-10.755,0-19.063,9.055-19.063,20.452v0.214c0,12.036,8.413,20.664,20.234,20.664c5.004,0,8.838-1.065,11.934-3.09v-9.053h-14.7
			v-15.125h34.293v33.551c-7.875,6.499-18.847,11.505-32.377,11.505C1561.367,234.159,1544.004,218.181,1544.004,195.601"/>
		<polygon clip-path="url(#SVGID_22_)" fill="#00A4C1" points="1646.823,204.76 1618.488,158.108 1642.035,158.108 
			1657.369,185.267 1672.815,158.108 1695.93,158.108 1667.595,204.441 1667.595,232.668 1646.823,232.668 		"/>
		<polygon clip-path="url(#SVGID_22_)" fill="#60DAF3" points="1245.346,646.232 1304.999,646.232 1304.999,664.338 
			1266.014,664.338 1266.014,677.016 1301.27,677.016 1301.27,694.164 1266.014,694.164 1266.014,720.793 1245.346,720.793 		"/>
	</g>
	<g clip-path="url(#SVGID_17_)">
		<defs>
			<path id="SVGID_23_" d="M1315.947,214.937v473.155c0,23.326,13.314,34.086,34.511,34.086s34.935-10.547,34.935-34.619v-41.326
				h-20.98v41.967c0,10.438-5.43,15.336-13.739,15.336c-8.307,0-13.746-5.111-13.746-15.869V214.937H1315.947z"/>
		</defs>
		<clipPath id="SVGID_24_">
			<use xlink:href="#SVGID_23_"  overflow="visible"/>
		</clipPath>
		
			<linearGradient id="SVGID_25_" gradientUnits="userSpaceOnUse" x1="52.96" y1="641.5488" x2="53.96" y2="641.5488" gradientTransform="matrix(-2.6913 -188.3894 -188.3894 2.6913 122355.1953 8777.2402)">
			<stop  offset="0" style="stop-color:#60DAF3"/>
			<stop  offset="0.0055" style="stop-color:#5FD9F2"/>
			<stop  offset="0.1949" style="stop-color:#3DC6E1"/>
			<stop  offset="0.3881" style="stop-color:#22B7D3"/>
			<stop  offset="0.5845" style="stop-color:#0FACC9"/>
			<stop  offset="0.7859" style="stop-color:#04A6C3"/>
			<stop  offset="1" style="stop-color:#00A4C1"/>
		</linearGradient>
		<polygon clip-path="url(#SVGID_24_)" fill="url(#SVGID_25_)" points="1315.961,723.168 1308.702,215.041 1385.378,213.945 
			1392.637,722.074 		"/>
	</g>
	<g clip-path="url(#SVGID_17_)">
		<defs>
			<rect id="SVGID_26_" x="1173" y="138" width="595.276" height="595.275"/>
		</defs>
		<clipPath id="SVGID_27_">
			<use xlink:href="#SVGID_26_"  overflow="visible"/>
		</clipPath>
		<polygon clip-path="url(#SVGID_27_)" fill="#60DAF3" points="1415.904,664.34 1393.527,664.34 1393.527,646.232 1458.931,646.232 
			1458.931,664.34 1436.563,664.34 1436.563,720.793 1415.904,720.793 		"/>
		<path clip-path="url(#SVGID_27_)" fill="#60DAF3" d="M1467.066,688.092v-41.859h20.979v41.432c0,10.76,5.438,15.871,13.747,15.871
			c8.308,0,13.738-4.898,13.738-15.338v-41.965h20.979v41.326c0,24.072-13.738,34.619-34.935,34.619
			C1480.379,722.178,1467.066,711.418,1467.066,688.092"/>
		<path clip-path="url(#SVGID_27_)" fill="#60DAF3" d="M1547.555,646.232h35.264c11.396,0,19.271,2.98,24.285,8.094
			c4.362,4.26,6.6,10.012,6.6,17.361v0.215c0,11.395-6.071,18.959-15.334,22.898l17.789,25.992h-23.86l-15.021-22.584h-0.217h-8.838
			v22.584h-20.667V646.232z M1581.856,682.021c7.033,0,11.075-3.408,11.075-8.844v-0.211c0-5.859-4.259-8.842-11.179-8.842h-13.531
			v17.896H1581.856z"/>
	</g>
	<g clip-path="url(#SVGID_17_)">
		<defs>
			<polygon id="SVGID_28_" points="1371.158,400.848 1436.986,439.035 1437.186,464.338 1371.158,426.382 1371.158,451.619 
				1437.053,489.904 1437.02,515.168 1371.158,476.596 1371.158,502.295 1458.945,553.494 1458.945,426.482 1371.158,374.527 			"/>
		</defs>
		<clipPath id="SVGID_29_">
			<use xlink:href="#SVGID_28_"  overflow="visible"/>
		</clipPath>
		
			<linearGradient id="SVGID_30_" gradientUnits="userSpaceOnUse" x1="55.1973" y1="647.8555" x2="56.1996" y2="647.8555" gradientTransform="matrix(621.6849 180.3155 180.3155 -621.6849 -149863.2969 393230.5938)">
			<stop  offset="0" style="stop-color:#60DAF3"/>
			<stop  offset="0.0055" style="stop-color:#5FD9F2"/>
			<stop  offset="0.1949" style="stop-color:#3DC6E1"/>
			<stop  offset="0.3881" style="stop-color:#22B7D3"/>
			<stop  offset="0.5845" style="stop-color:#0FACC9"/>
			<stop  offset="0.7859" style="stop-color:#04A6C3"/>
			<stop  offset="1" style="stop-color:#00A4C1"/>
		</linearGradient>
		<polygon clip-path="url(#SVGID_29_)" fill="url(#SVGID_30_)" points="1377.971,351.041 1506.826,388.414 1452.134,576.98 
			1323.277,539.607 		"/>
	</g>
	<g clip-path="url(#SVGID_17_)">
		<defs>
			<rect id="SVGID_31_" x="1173" y="138" width="595.276" height="595.275"/>
		</defs>
		<clipPath id="SVGID_32_">
			<use xlink:href="#SVGID_31_"  overflow="visible"/>
		</clipPath>
		<g opacity="0.78" clip-path="url(#SVGID_32_)">
			<g>
				<defs>
					<rect id="SVGID_33_" x="1458.955" y="376.242" width="87.748" height="177.252"/>
				</defs>
				<clipPath id="SVGID_34_">
					<use xlink:href="#SVGID_33_"  overflow="visible"/>
				</clipPath>
				<g clip-path="url(#SVGID_34_)">
					<defs>
						<polygon id="SVGID_35_" points="1458.955,426.477 1546.703,376.242 1546.703,401.533 1480.985,439.76 1480.985,465.129 
							1546.703,426.785 1546.703,452.477 1480.985,490.301 1480.985,541.039 1458.955,553.494 						"/>
					</defs>
					<clipPath id="SVGID_36_">
						<use xlink:href="#SVGID_35_"  overflow="visible"/>
					</clipPath>
					
						<linearGradient id="SVGID_37_" gradientUnits="userSpaceOnUse" x1="55.1978" y1="647.8555" x2="56.1978" y2="647.8555" gradientTransform="matrix(621.6849 180.3155 180.3155 -621.6849 -149856.7969 393207.8438)">
						<stop  offset="0" style="stop-color:#60DAF3"/>
						<stop  offset="0.0055" style="stop-color:#5FD9F2"/>
						<stop  offset="0.1949" style="stop-color:#3DC6E1"/>
						<stop  offset="0.3881" style="stop-color:#22B7D3"/>
						<stop  offset="0.5845" style="stop-color:#0FACC9"/>
						<stop  offset="0.7859" style="stop-color:#04A6C3"/>
						<stop  offset="1" style="stop-color:#00A4C1"/>
					</linearGradient>
					<polygon clip-path="url(#SVGID_36_)" fill="url(#SVGID_37_)" points="1465.764,352.768 1594.124,389.997 1539.894,576.969 
						1411.533,539.74 					"/>
				</g>
			</g>
		</g>
	</g>
	<g clip-path="url(#SVGID_17_)">
		<defs>
			<polygon id="SVGID_38_" points="1393.052,362.811 1458.945,401.671 1524.886,362.829 1458.945,325.298 			"/>
		</defs>
		<clipPath id="SVGID_39_">
			<use xlink:href="#SVGID_38_"  overflow="visible"/>
		</clipPath>
		
			<linearGradient id="SVGID_40_" gradientUnits="userSpaceOnUse" x1="55.1978" y1="647.8545" x2="56.1978" y2="647.8545" gradientTransform="matrix(621.6849 180.3155 180.3155 -621.6849 -149832.7969 393126.0938)">
			<stop  offset="0" style="stop-color:#60DAF3"/>
			<stop  offset="0.0055" style="stop-color:#5FD9F2"/>
			<stop  offset="0.1949" style="stop-color:#3DC6E1"/>
			<stop  offset="0.3881" style="stop-color:#22B7D3"/>
			<stop  offset="0.5845" style="stop-color:#0FACC9"/>
			<stop  offset="0.7859" style="stop-color:#04A6C3"/>
			<stop  offset="1" style="stop-color:#00A4C1"/>
		</linearGradient>
		<polygon clip-path="url(#SVGID_39_)" fill="url(#SVGID_40_)" points="1403.281,290.027 1545.318,331.224 1514.656,436.941 
			1372.619,395.744 		"/>
	</g>
</g>
</svg>
